G04*
G04 #@! TF.GenerationSoftware,Altium Limited,Altium Designer,23.2.1 (34)*
G04*
G04 Layer_Color=32896*
%FSLAX44Y44*%
%MOMM*%
G71*
G04*
G04 #@! TF.SameCoordinates,58D706FB-8AEF-4135-8DC0-6D3B37A59AC3*
G04*
G04*
G04 #@! TF.FilePolarity,Positive*
G04*
G01*
G75*
G36*
X312370Y481010D02*
X312093Y480983D01*
X311871D01*
X311649Y480955D01*
X311454Y480927D01*
X311149Y480899D01*
X310927Y480872D01*
X310788Y480844D01*
X310705Y480816D01*
X310649Y480788D01*
X310510Y480705D01*
X310427Y480622D01*
X310372Y480566D01*
Y480538D01*
X310316Y480372D01*
X310261Y480122D01*
X310233Y479844D01*
Y479539D01*
X310205Y479234D01*
Y478984D01*
Y478817D01*
Y478789D01*
Y478762D01*
Y477873D01*
X310177Y477068D01*
Y476346D01*
Y476013D01*
Y475708D01*
Y475430D01*
Y475180D01*
Y474958D01*
Y474792D01*
Y474653D01*
Y474542D01*
Y474486D01*
Y474459D01*
Y473154D01*
Y471904D01*
X310205Y471349D01*
Y470794D01*
Y470294D01*
Y469822D01*
X310233Y469378D01*
Y468989D01*
Y468656D01*
Y468379D01*
X310261Y468157D01*
Y467990D01*
Y467879D01*
Y467851D01*
Y467574D01*
X310288Y467324D01*
X310316Y466935D01*
X310372Y466602D01*
X310427Y466380D01*
X310455Y466213D01*
X310510Y466102D01*
X310538Y466074D01*
Y466047D01*
X310649Y465963D01*
X310816Y465908D01*
X311177Y465797D01*
X311343Y465769D01*
X311510Y465741D01*
X311649D01*
X312370Y465714D01*
Y464714D01*
X311815Y464742D01*
X311232Y464770D01*
X310677D01*
X310177Y464797D01*
X308151D01*
X307734Y464770D01*
X307346D01*
X307040Y464742D01*
X306790D01*
X306624Y464714D01*
X306568D01*
Y465714D01*
X306846D01*
X307096Y465741D01*
X307318Y465769D01*
X307512Y465797D01*
X307845Y465825D01*
X308067Y465880D01*
X308234Y465936D01*
X308345Y465991D01*
X308373Y466019D01*
X308400D01*
X308484Y466158D01*
X308539Y466324D01*
X308595Y466546D01*
X308622Y466796D01*
X308650Y467018D01*
X308678Y467213D01*
Y467324D01*
Y467379D01*
Y467907D01*
X308706Y468545D01*
Y469239D01*
Y469961D01*
Y470738D01*
Y471544D01*
X308734Y472349D01*
Y473126D01*
Y473876D01*
Y474597D01*
Y475236D01*
Y475819D01*
Y476041D01*
Y476263D01*
Y476457D01*
Y476624D01*
Y476763D01*
Y476846D01*
Y476902D01*
Y476929D01*
Y478595D01*
X304486Y469822D01*
X304208Y469239D01*
X303931Y468656D01*
X303681Y468129D01*
X303431Y467629D01*
X303209Y467129D01*
X303015Y466713D01*
X302820Y466297D01*
X302654Y465936D01*
X302487Y465602D01*
X302376Y465297D01*
X302265Y465047D01*
X302154Y464853D01*
X302071Y464686D01*
X302043Y464575D01*
X301987Y464492D01*
Y464464D01*
X301182D01*
X300905Y465103D01*
X300599Y465769D01*
X300266Y466463D01*
X299988Y467129D01*
X299850Y467435D01*
X299711Y467712D01*
X299600Y467962D01*
X299489Y468184D01*
X299405Y468351D01*
X299350Y468490D01*
X299294Y468573D01*
Y468601D01*
X298767Y469739D01*
X298239Y470822D01*
X297740Y471821D01*
X297296Y472765D01*
X296851Y473653D01*
X296463Y474486D01*
X296102Y475236D01*
X295769Y475930D01*
X295463Y476541D01*
X295186Y477068D01*
X294963Y477512D01*
X294769Y477901D01*
X294630Y478206D01*
X294519Y478429D01*
X294464Y478540D01*
X294436Y478595D01*
Y471183D01*
Y470600D01*
Y470072D01*
Y469600D01*
Y469184D01*
X294464Y468795D01*
Y468462D01*
Y468184D01*
Y467934D01*
X294492Y467712D01*
Y467518D01*
Y467379D01*
Y467268D01*
X294519Y467185D01*
Y467129D01*
Y467074D01*
X294547Y466768D01*
X294575Y466519D01*
X294630Y466324D01*
X294686Y466185D01*
X294714Y466074D01*
X294769Y466019D01*
X294797Y465963D01*
X294908Y465908D01*
X295047Y465852D01*
X295408Y465769D01*
X295574Y465741D01*
X295713Y465714D01*
X296546D01*
Y464714D01*
X295602Y464742D01*
X295158D01*
X294741Y464770D01*
X293687D01*
X293409Y464797D01*
X291049D01*
X290466Y464770D01*
X289911D01*
X289439Y464742D01*
X289050D01*
X288911Y464714D01*
X288717D01*
Y465714D01*
X288995Y465741D01*
X289244Y465769D01*
X289467Y465797D01*
X289661D01*
X289966Y465852D01*
X290188Y465880D01*
X290327Y465908D01*
X290410D01*
X290466Y465936D01*
X290577Y466019D01*
X290660Y466130D01*
X290688Y466213D01*
X290716Y466241D01*
X290744Y466324D01*
Y466463D01*
X290772Y466630D01*
X290799Y466824D01*
X290827Y467268D01*
Y467768D01*
X290855Y468240D01*
Y468434D01*
X290882Y468629D01*
Y468795D01*
Y468906D01*
Y468989D01*
Y469017D01*
Y469906D01*
X290910Y470766D01*
Y471571D01*
Y471932D01*
Y472265D01*
Y472571D01*
Y472821D01*
Y473070D01*
Y473265D01*
Y473431D01*
Y473542D01*
Y473626D01*
Y473653D01*
Y474431D01*
Y475153D01*
Y475819D01*
X290882Y476430D01*
Y476957D01*
Y477429D01*
Y477873D01*
X290855Y478234D01*
Y478567D01*
Y478845D01*
Y479067D01*
X290827Y479261D01*
Y479400D01*
Y479483D01*
Y479539D01*
Y479567D01*
X290799Y479900D01*
X290772Y480150D01*
X290716Y480344D01*
X290688Y480483D01*
X290633Y480594D01*
X290605Y480649D01*
X290577Y480705D01*
X290522Y480733D01*
X290438Y480788D01*
X290188Y480844D01*
X289883Y480899D01*
X289550Y480927D01*
X289244Y480955D01*
X288967Y480983D01*
X288856Y481010D01*
X288717D01*
Y482010D01*
X289272Y481982D01*
X289800Y481954D01*
X290327D01*
X290772Y481927D01*
X291743D01*
X292743Y481954D01*
X293214D01*
X293659Y481982D01*
X294020D01*
X294325Y482010D01*
X294575D01*
X294908Y481205D01*
X295297Y480316D01*
X295741Y479372D01*
X296185Y478373D01*
X296657Y477374D01*
X297157Y476319D01*
X297656Y475291D01*
X298128Y474320D01*
X298600Y473348D01*
X299017Y472460D01*
X299405Y471682D01*
X299600Y471321D01*
X299739Y470988D01*
X299905Y470683D01*
X300044Y470405D01*
X300155Y470155D01*
X300238Y469961D01*
X300322Y469822D01*
X300377Y469683D01*
X300433Y469628D01*
Y469600D01*
X300794Y470350D01*
X301127Y471044D01*
X301460Y471710D01*
X301765Y472349D01*
X302043Y472932D01*
X302320Y473487D01*
X302570Y474014D01*
X302792Y474514D01*
X303015Y474958D01*
X303237Y475375D01*
X303403Y475791D01*
X303598Y476152D01*
X303764Y476485D01*
X303903Y476791D01*
X304153Y477318D01*
X304375Y477762D01*
X304541Y478123D01*
X304653Y478401D01*
X304764Y478595D01*
X304819Y478734D01*
X304875Y478845D01*
X304902Y478900D01*
X305180Y479483D01*
X305430Y480039D01*
X305652Y480566D01*
X305874Y481038D01*
X306041Y481427D01*
X306180Y481732D01*
X306235Y481843D01*
X306263Y481927D01*
X306290Y481982D01*
Y482010D01*
X306873D01*
X307429Y481982D01*
X311010D01*
X311454Y482010D01*
X312370D01*
Y481010D01*
D02*
G37*
G36*
X200350D02*
X200017Y480983D01*
X199739Y480955D01*
X199489Y480927D01*
X199267D01*
X199073Y480899D01*
X198906Y480872D01*
X198629Y480844D01*
X198462Y480816D01*
X198351Y480788D01*
X198296Y480761D01*
X198157Y480649D01*
X198046Y480511D01*
X198018Y480400D01*
X197990Y480372D01*
Y480344D01*
X197962Y480233D01*
Y480094D01*
X197935Y479900D01*
Y479678D01*
X197907Y479206D01*
X197879Y478706D01*
Y478234D01*
Y478012D01*
Y477818D01*
Y477651D01*
Y477540D01*
Y477457D01*
Y477429D01*
X197851Y467934D01*
Y466852D01*
Y466380D01*
X197879Y465908D01*
Y465464D01*
X197907Y465047D01*
Y464686D01*
Y464353D01*
X197935Y464048D01*
Y463770D01*
X197962Y463548D01*
Y463354D01*
X197990Y463187D01*
Y463076D01*
Y463021D01*
Y462993D01*
X198018Y462549D01*
X198074Y462188D01*
X198129Y461910D01*
X198185Y461716D01*
X198240Y461577D01*
X198296Y461466D01*
X198323Y461438D01*
Y461410D01*
X198545Y461244D01*
X198795Y461161D01*
X198906D01*
X198990Y461133D01*
X199073D01*
X199434Y461161D01*
X199767Y461272D01*
X200072Y461410D01*
X200322Y461577D01*
X200544Y461716D01*
X200711Y461855D01*
X200822Y461966D01*
X200850Y461993D01*
X201127Y461882D01*
X201099Y461605D01*
X201072Y461355D01*
Y461161D01*
X201044Y460994D01*
Y460883D01*
Y460800D01*
Y460772D01*
Y460744D01*
Y460605D01*
Y460439D01*
X201072Y460050D01*
X201099Y459856D01*
Y459717D01*
X201127Y459606D01*
Y459578D01*
X200766Y459495D01*
X200489Y459439D01*
X200378Y459412D01*
X200239D01*
X199823Y459439D01*
X199406Y459523D01*
X199017Y459661D01*
X198657Y459800D01*
X198379Y459939D01*
X198129Y460078D01*
X197990Y460161D01*
X197935Y460189D01*
X197379Y460578D01*
X196908Y460966D01*
X196491Y461355D01*
X196130Y461716D01*
X195880Y462021D01*
X195686Y462271D01*
X195547Y462438D01*
X195519Y462465D01*
Y462493D01*
X195214Y462965D01*
X194964Y463465D01*
X194797Y463937D01*
X194631Y464353D01*
X194548Y464714D01*
X194492Y464992D01*
X194464Y465103D01*
X194437Y465186D01*
Y465214D01*
Y465242D01*
X194409Y465380D01*
Y465575D01*
X194381Y465797D01*
Y466074D01*
X194353Y466657D01*
Y467296D01*
X194326Y467907D01*
Y468184D01*
Y468434D01*
Y468629D01*
Y468767D01*
Y468878D01*
Y468906D01*
X194298Y472682D01*
X194270Y477707D01*
Y478123D01*
Y478484D01*
Y478817D01*
X194242Y479123D01*
Y479372D01*
Y479595D01*
X194214Y479789D01*
Y479955D01*
X194187Y480178D01*
Y480344D01*
X194159Y480400D01*
Y480427D01*
X194104Y480566D01*
X194048Y480649D01*
X193992Y480705D01*
X193965Y480733D01*
X193826Y480816D01*
X193631Y480872D01*
X193465Y480899D01*
X193409D01*
X193048Y480927D01*
X192743Y480955D01*
X192493Y480983D01*
X192299Y481010D01*
X191966D01*
Y482010D01*
X192799Y481982D01*
X193604Y481954D01*
X194353D01*
X195020Y481927D01*
X196991D01*
X197657Y481954D01*
X198296D01*
X198934Y481982D01*
X199739D01*
X199933Y482010D01*
X200350D01*
Y481010D01*
D02*
G37*
G36*
X262315Y482565D02*
X262593Y482510D01*
X262815Y482399D01*
X263009Y482315D01*
X263176Y482204D01*
X263287Y482093D01*
X263370Y482038D01*
X263398Y482010D01*
X263592Y481788D01*
X263731Y481566D01*
X263814Y481344D01*
X263870Y481121D01*
X263925Y480927D01*
X263953Y480788D01*
Y480677D01*
Y480649D01*
X263925Y480372D01*
X263870Y480122D01*
X263787Y479900D01*
X263675Y479706D01*
X263564Y479539D01*
X263481Y479428D01*
X263426Y479345D01*
X263398Y479317D01*
X263176Y479123D01*
X262954Y478984D01*
X262732Y478900D01*
X262509Y478845D01*
X262343Y478789D01*
X262204Y478762D01*
X262065D01*
X261788Y478789D01*
X261510Y478845D01*
X261288Y478928D01*
X261094Y479039D01*
X260927Y479150D01*
X260816Y479234D01*
X260733Y479289D01*
X260705Y479317D01*
X260511Y479539D01*
X260372Y479761D01*
X260261Y479983D01*
X260205Y480205D01*
X260150Y480372D01*
X260122Y480511D01*
Y480622D01*
Y480649D01*
X260150Y480927D01*
X260205Y481205D01*
X260316Y481427D01*
X260400Y481621D01*
X260511Y481788D01*
X260622Y481899D01*
X260677Y481982D01*
X260705Y482010D01*
X260927Y482204D01*
X261149Y482343D01*
X261371Y482454D01*
X261566Y482510D01*
X261760Y482565D01*
X261899Y482593D01*
X262038D01*
X262315Y482565D01*
D02*
G37*
G36*
X251960Y476652D02*
X252376Y476596D01*
X252793Y476513D01*
X253154Y476430D01*
X253487Y476319D01*
X253792Y476208D01*
X254070Y476096D01*
X254320Y475985D01*
X254514Y475874D01*
X254708Y475763D01*
X254847Y475680D01*
X254958Y475597D01*
X255069Y475541D01*
X255097Y475513D01*
X255125Y475486D01*
X255375Y475264D01*
X255597Y475014D01*
X255791Y474736D01*
X255958Y474486D01*
X256208Y473959D01*
X256374Y473487D01*
X256485Y473043D01*
X256513Y472848D01*
X256541Y472682D01*
X256568Y472571D01*
Y472460D01*
Y472404D01*
Y472376D01*
X256541Y471904D01*
X256485Y471488D01*
X256374Y471127D01*
X256263Y470794D01*
X256152Y470544D01*
X256041Y470378D01*
X255985Y470239D01*
X255958Y470211D01*
X255680Y469906D01*
X255375Y469628D01*
X255014Y469406D01*
X254681Y469184D01*
X254375Y469045D01*
X254125Y468906D01*
X253959Y468851D01*
X253931Y468823D01*
X253903D01*
X254375Y468462D01*
X254597Y468295D01*
X254819Y468129D01*
X254986Y468018D01*
X255125Y467934D01*
X255208Y467879D01*
X255236Y467851D01*
X255652Y467601D01*
X255819Y467240D01*
X255930Y466935D01*
X256013Y466657D01*
X256069Y466435D01*
X256096Y466241D01*
X256124Y466102D01*
Y466019D01*
Y465991D01*
X256096Y465769D01*
X256069Y465602D01*
X256013Y465436D01*
X255958Y465297D01*
X255902Y465214D01*
X255847Y465131D01*
X255791Y465103D01*
Y465075D01*
X255625Y464964D01*
X255430Y464881D01*
X254986Y464714D01*
X254792Y464659D01*
X254625Y464603D01*
X254514Y464575D01*
X254459D01*
X255347Y464048D01*
X255736Y463826D01*
X256041Y463631D01*
X256291Y463465D01*
X256457Y463354D01*
X256596Y463243D01*
X256652Y463187D01*
X256707Y463132D01*
X256846Y462882D01*
X256957Y462632D01*
X257013Y462382D01*
X257068Y462160D01*
X257096Y461938D01*
X257124Y461771D01*
Y461660D01*
Y461632D01*
X257096Y461355D01*
X257068Y461077D01*
X256902Y460605D01*
X256679Y460161D01*
X256430Y459800D01*
X256180Y459495D01*
X255958Y459300D01*
X255791Y459162D01*
X255763Y459106D01*
X255736D01*
X255458Y458940D01*
X255153Y458773D01*
X254486Y458523D01*
X253792Y458357D01*
X253098Y458245D01*
X252793Y458190D01*
X252487Y458162D01*
X252210Y458134D01*
X251988D01*
X251793Y458107D01*
X251516D01*
X250905Y458134D01*
X250322Y458190D01*
X249767Y458273D01*
X249267Y458384D01*
X248795Y458495D01*
X248351Y458634D01*
X247962Y458801D01*
X247601Y458967D01*
X247268Y459106D01*
X246991Y459273D01*
X246741Y459412D01*
X246546Y459550D01*
X246380Y459633D01*
X246269Y459717D01*
X246213Y459772D01*
X246185Y459800D01*
X245825Y460133D01*
X245547Y460466D01*
X245269Y460800D01*
X245047Y461161D01*
X244853Y461494D01*
X244686Y461855D01*
X244575Y462188D01*
X244464Y462521D01*
X244381Y462798D01*
X244325Y463076D01*
X244270Y463326D01*
X244242Y463548D01*
X244214Y463715D01*
Y463853D01*
Y463937D01*
Y463965D01*
X244242Y464325D01*
X244270Y464659D01*
X244325Y464964D01*
X244409Y465186D01*
X244492Y465380D01*
X244547Y465547D01*
X244575Y465630D01*
X244603Y465658D01*
X244742Y465908D01*
X244908Y466102D01*
X245075Y466269D01*
X245241Y466408D01*
X245380Y466519D01*
X245464Y466574D01*
X245547Y466630D01*
X245575D01*
X245825Y466713D01*
X246158Y466796D01*
X246518Y466852D01*
X246852Y466880D01*
X247185Y466907D01*
X250905D01*
X251294Y466935D01*
X252349D01*
X252487Y466963D01*
X252737D01*
X253015Y467046D01*
X253209Y467129D01*
X253348Y467240D01*
X253431Y467379D01*
X253487Y467490D01*
X253542Y467601D01*
Y467657D01*
Y467685D01*
X253515Y467851D01*
X253459Y467990D01*
X253431Y468073D01*
X253403Y468101D01*
X253320Y468184D01*
X253209Y468268D01*
X252987Y468434D01*
X252876Y468517D01*
X252765Y468573D01*
X252710Y468629D01*
X252432D01*
X252237Y468601D01*
X251654D01*
X250877Y468656D01*
X250155Y468767D01*
X249489Y468934D01*
X248934Y469156D01*
X248684Y469239D01*
X248490Y469350D01*
X248295Y469434D01*
X248129Y469517D01*
X248018Y469572D01*
X247934Y469628D01*
X247879Y469683D01*
X247851D01*
X247574Y469906D01*
X247296Y470155D01*
X247101Y470405D01*
X246907Y470683D01*
X246741Y470961D01*
X246602Y471238D01*
X246408Y471793D01*
X246296Y472293D01*
X246269Y472515D01*
X246241Y472710D01*
X246213Y472848D01*
Y472959D01*
Y473043D01*
Y473070D01*
X246241Y473459D01*
X246296Y473848D01*
X246352Y473987D01*
X246380Y474098D01*
X246408Y474181D01*
Y474209D01*
X244353D01*
X244186Y474514D01*
X244020Y474792D01*
X243881Y475014D01*
X243770Y475208D01*
X243659Y475347D01*
X243576Y475458D01*
X243548Y475513D01*
X243520Y475541D01*
X243742Y475819D01*
X243909Y475791D01*
X244131D01*
X244381Y475763D01*
X244658D01*
X245241Y475736D01*
X247296D01*
X247574Y475902D01*
X247823Y476069D01*
X248073Y476180D01*
X248295Y476263D01*
X248462Y476346D01*
X248601Y476402D01*
X248712Y476430D01*
X248739D01*
X249128Y476513D01*
X249517Y476596D01*
X249905Y476652D01*
X250266Y476679D01*
X250572Y476707D01*
X251516D01*
X251960Y476652D01*
D02*
G37*
G36*
X173226Y476679D02*
X173282Y476652D01*
X173310Y476624D01*
X173976Y476402D01*
X174309Y476291D01*
X174614Y476208D01*
X174864Y476152D01*
X175059Y476096D01*
X175197Y476041D01*
X175253D01*
X175669Y475958D01*
X176086Y475874D01*
X176530Y475819D01*
X176919Y475763D01*
X177280Y475708D01*
X177557Y475680D01*
X177668D01*
X177752Y475652D01*
X177807D01*
Y474708D01*
X177030Y474681D01*
X176780Y474653D01*
X176558Y474625D01*
X176419Y474542D01*
X176308Y474486D01*
X176225Y474431D01*
X176197Y474375D01*
X176169Y474347D01*
Y474320D01*
X176141Y474209D01*
X176114Y473987D01*
Y473709D01*
X176086Y473348D01*
Y472959D01*
X176058Y472515D01*
Y471599D01*
X176030Y471127D01*
Y470683D01*
Y470266D01*
Y469906D01*
Y469600D01*
Y469350D01*
Y469212D01*
Y469184D01*
Y469156D01*
Y468767D01*
Y468379D01*
Y468046D01*
X176058Y467768D01*
Y467490D01*
Y467268D01*
X176086Y467046D01*
Y466880D01*
X176114Y466602D01*
Y466435D01*
X176141Y466324D01*
Y466297D01*
X176197Y466102D01*
X176280Y465963D01*
X176363Y465880D01*
X176391Y465852D01*
X176502Y465825D01*
X176669Y465797D01*
X176919Y465769D01*
X177169Y465741D01*
X177391D01*
X177613Y465714D01*
X177807D01*
Y464714D01*
X177335Y464742D01*
X176502D01*
X176141Y464770D01*
X175336D01*
X175142Y464797D01*
X173254D01*
X172699Y464770D01*
X172227D01*
X171810Y464742D01*
X171505D01*
X171394Y464714D01*
X171255D01*
Y465714D01*
X171644Y465769D01*
X171977Y465797D01*
X172199Y465825D01*
X172393Y465880D01*
X172505Y465908D01*
X172560D01*
X172616Y465936D01*
X172727Y466047D01*
X172782Y466158D01*
X172810Y466241D01*
Y466269D01*
Y466352D01*
X172838Y466491D01*
Y466657D01*
X172865Y466824D01*
Y467240D01*
X172893Y467657D01*
Y468073D01*
Y468434D01*
Y468573D01*
Y468684D01*
Y468740D01*
Y468767D01*
X172865Y470239D01*
Y470516D01*
Y470766D01*
Y471210D01*
X172893Y471544D01*
Y471793D01*
Y471988D01*
X172921Y472099D01*
Y472154D01*
Y472182D01*
Y472654D01*
Y472848D01*
X172893Y473043D01*
X172865Y473181D01*
X172810Y473293D01*
X172754Y473459D01*
X172727Y473515D01*
X172449Y473876D01*
X172171Y474125D01*
X172060Y474209D01*
X171977Y474264D01*
X171922Y474320D01*
X171894D01*
X171699Y474431D01*
X171505Y474486D01*
X171116Y474597D01*
X170978D01*
X170867Y474625D01*
X170756D01*
X170450Y474597D01*
X170200Y474570D01*
X169978Y474486D01*
X169784Y474431D01*
X169645Y474347D01*
X169534Y474264D01*
X169478Y474236D01*
X169451Y474209D01*
X169284Y474042D01*
X169145Y473876D01*
X169034Y473681D01*
X168951Y473487D01*
X168895Y473320D01*
X168868Y473181D01*
X168840Y473070D01*
Y473043D01*
X168812Y472876D01*
X168784Y472654D01*
Y472404D01*
X168757Y472127D01*
X168729Y471488D01*
Y470822D01*
X168701Y470183D01*
Y469906D01*
Y469656D01*
Y469461D01*
Y469295D01*
Y469184D01*
Y469156D01*
Y468656D01*
Y468240D01*
X168729Y467851D01*
Y467518D01*
X168757Y467213D01*
Y466963D01*
X168784Y466741D01*
X168812Y466574D01*
X168840Y466435D01*
Y466297D01*
X168895Y466158D01*
X168923Y466074D01*
Y466047D01*
X169034Y465936D01*
X169228Y465852D01*
X169451Y465797D01*
X169701Y465769D01*
X169923Y465741D01*
X170117Y465714D01*
X170311D01*
Y464714D01*
X169728Y464742D01*
X169118Y464770D01*
X168535D01*
X168007Y464797D01*
X165703D01*
X165175Y464770D01*
X164676D01*
X164287Y464742D01*
X163954D01*
X163843Y464714D01*
X163676D01*
Y465714D01*
X163926Y465741D01*
X164148D01*
X164537Y465797D01*
X164814Y465825D01*
X165009Y465852D01*
X165147Y465880D01*
X165231Y465908D01*
X165286Y465936D01*
X165342Y466019D01*
X165397Y466130D01*
X165481Y466352D01*
Y466463D01*
X165508Y466574D01*
Y466630D01*
Y466657D01*
Y466907D01*
X165536Y467213D01*
Y467546D01*
X165564Y467879D01*
Y468629D01*
X165592Y469378D01*
Y469739D01*
Y470072D01*
Y470378D01*
Y470655D01*
Y470877D01*
Y471044D01*
Y471155D01*
Y471183D01*
Y471516D01*
Y471793D01*
Y472071D01*
X165564Y472293D01*
Y472487D01*
Y472682D01*
X165536Y472959D01*
X165508Y473154D01*
Y473265D01*
X165481Y473320D01*
Y473348D01*
X165397Y473542D01*
X165286Y473709D01*
X165009Y473987D01*
X164898Y474098D01*
X164787Y474181D01*
X164731Y474209D01*
X164703Y474236D01*
X164481Y474375D01*
X164259Y474459D01*
X163815Y474570D01*
X163648Y474597D01*
X163510Y474625D01*
X163371D01*
X162954Y474597D01*
X162593Y474514D01*
X162316Y474375D01*
X162094Y474264D01*
X161927Y474125D01*
X161788Y473987D01*
X161733Y473903D01*
X161705Y473876D01*
X161622Y473709D01*
X161538Y473487D01*
X161483Y473265D01*
X161427Y472987D01*
X161344Y472349D01*
X161289Y471710D01*
X161261Y471127D01*
X161233Y470849D01*
Y470600D01*
Y470405D01*
Y470266D01*
Y470155D01*
Y470128D01*
Y469184D01*
X161289Y468240D01*
X161344Y467379D01*
X161372Y466963D01*
X161400Y466574D01*
X161427Y466241D01*
X161455Y465908D01*
X161483Y465630D01*
X161511Y465380D01*
X161538Y465186D01*
Y465047D01*
X161566Y464964D01*
Y464936D01*
X161427Y464714D01*
X160983Y464742D01*
X160567Y464770D01*
X160178D01*
X159845Y464797D01*
X158263D01*
X157790Y464770D01*
X157374D01*
X157013Y464742D01*
X156708D01*
X156597Y464714D01*
X156458D01*
Y465714D01*
X156874Y465741D01*
X157180Y465769D01*
X157430Y465797D01*
X157624Y465825D01*
X157735Y465852D01*
X157818D01*
X157874Y465880D01*
X157985Y465991D01*
X158040Y466130D01*
X158096Y466241D01*
Y466297D01*
X158124Y466408D01*
Y466546D01*
X158151Y466880D01*
X158179Y467240D01*
Y467629D01*
X158207Y467990D01*
Y468295D01*
Y468406D01*
Y468490D01*
Y468545D01*
Y468573D01*
Y469100D01*
Y469600D01*
X158179Y470128D01*
Y470600D01*
Y471016D01*
X158151Y471183D01*
Y471349D01*
Y471460D01*
Y471544D01*
Y471599D01*
Y471627D01*
X158124Y472654D01*
Y473043D01*
X158151Y473404D01*
X158263Y474042D01*
X158401Y474570D01*
X158568Y474986D01*
X158762Y475319D01*
X158901Y475569D01*
X159012Y475680D01*
X159040Y475736D01*
X159429Y476069D01*
X159873Y476291D01*
X160345Y476457D01*
X160817Y476596D01*
X161233Y476652D01*
X161427Y476679D01*
X161594D01*
X161705Y476707D01*
X161899D01*
X162288Y476679D01*
X162621Y476624D01*
X162899Y476541D01*
X163149Y476457D01*
X163343Y476374D01*
X163482Y476291D01*
X163565Y476235D01*
X163593Y476208D01*
X165703Y474542D01*
X165869Y474930D01*
X166036Y475291D01*
X166230Y475569D01*
X166425Y475791D01*
X166591Y475958D01*
X166730Y476096D01*
X166841Y476152D01*
X166869Y476180D01*
X167174Y476346D01*
X167535Y476485D01*
X167868Y476568D01*
X168201Y476652D01*
X168507Y476679D01*
X168757Y476707D01*
X168979D01*
X169423Y476679D01*
X169839Y476624D01*
X170173Y476541D01*
X170450Y476457D01*
X170644Y476374D01*
X170811Y476291D01*
X170894Y476235D01*
X170922Y476208D01*
X172921Y474708D01*
Y475153D01*
Y475430D01*
Y475625D01*
Y475736D01*
Y475763D01*
X172893Y476013D01*
X172865Y476208D01*
Y476346D01*
Y476374D01*
Y476485D01*
X172893Y476568D01*
X172949Y476679D01*
X173032Y476707D01*
X173143D01*
X173226Y476679D01*
D02*
G37*
G36*
X150794D02*
X150850Y476652D01*
X150878Y476624D01*
X151544Y476402D01*
X151877Y476291D01*
X152183Y476208D01*
X152432Y476152D01*
X152627Y476096D01*
X152766Y476041D01*
X152821D01*
X153237Y475958D01*
X153654Y475874D01*
X154098Y475819D01*
X154487Y475763D01*
X154848Y475708D01*
X155125Y475680D01*
X155236D01*
X155320Y475652D01*
X155375D01*
Y474708D01*
X154598Y474681D01*
X154348Y474653D01*
X154126Y474625D01*
X153987Y474542D01*
X153876Y474486D01*
X153793Y474431D01*
X153765Y474375D01*
X153737Y474347D01*
Y474320D01*
X153709Y474209D01*
X153682Y473987D01*
Y473709D01*
X153654Y473348D01*
Y472959D01*
X153626Y472515D01*
Y471599D01*
X153598Y471127D01*
Y470683D01*
Y470266D01*
Y469906D01*
Y469600D01*
Y469350D01*
Y469212D01*
Y469184D01*
Y469156D01*
Y468767D01*
Y468379D01*
Y468046D01*
X153626Y467768D01*
Y467490D01*
Y467268D01*
X153654Y467046D01*
Y466880D01*
X153682Y466602D01*
Y466435D01*
X153709Y466324D01*
Y466297D01*
X153765Y466102D01*
X153848Y465963D01*
X153932Y465880D01*
X153959Y465852D01*
X154070Y465825D01*
X154237Y465797D01*
X154487Y465769D01*
X154737Y465741D01*
X154959D01*
X155181Y465714D01*
X155375D01*
Y464714D01*
X154903Y464742D01*
X154070D01*
X153709Y464770D01*
X152904D01*
X152710Y464797D01*
X150822D01*
X150267Y464770D01*
X149795D01*
X149379Y464742D01*
X149073D01*
X148962Y464714D01*
X148823D01*
Y465714D01*
X149212Y465769D01*
X149545Y465797D01*
X149767Y465825D01*
X149962Y465880D01*
X150073Y465908D01*
X150128D01*
X150184Y465936D01*
X150295Y466047D01*
X150350Y466158D01*
X150378Y466241D01*
Y466269D01*
Y466352D01*
X150406Y466491D01*
Y466657D01*
X150434Y466824D01*
Y467240D01*
X150461Y467657D01*
Y468073D01*
Y468434D01*
Y468573D01*
Y468684D01*
Y468740D01*
Y468767D01*
X150434Y470239D01*
Y470516D01*
Y470766D01*
Y471210D01*
X150461Y471544D01*
Y471793D01*
Y471988D01*
X150489Y472099D01*
Y472154D01*
Y472182D01*
Y472654D01*
Y472848D01*
X150461Y473043D01*
X150434Y473181D01*
X150378Y473293D01*
X150323Y473459D01*
X150295Y473515D01*
X150017Y473876D01*
X149740Y474125D01*
X149628Y474209D01*
X149545Y474264D01*
X149490Y474320D01*
X149462D01*
X149268Y474431D01*
X149073Y474486D01*
X148685Y474597D01*
X148546D01*
X148435Y474625D01*
X148324D01*
X148018Y474597D01*
X147768Y474570D01*
X147546Y474486D01*
X147352Y474431D01*
X147213Y474347D01*
X147102Y474264D01*
X147046Y474236D01*
X147019Y474209D01*
X146852Y474042D01*
X146713Y473876D01*
X146602Y473681D01*
X146519Y473487D01*
X146463Y473320D01*
X146436Y473181D01*
X146408Y473070D01*
Y473043D01*
X146380Y472876D01*
X146353Y472654D01*
Y472404D01*
X146325Y472127D01*
X146297Y471488D01*
Y470822D01*
X146269Y470183D01*
Y469906D01*
Y469656D01*
Y469461D01*
Y469295D01*
Y469184D01*
Y469156D01*
Y468656D01*
Y468240D01*
X146297Y467851D01*
Y467518D01*
X146325Y467213D01*
Y466963D01*
X146353Y466741D01*
X146380Y466574D01*
X146408Y466435D01*
Y466297D01*
X146463Y466158D01*
X146491Y466074D01*
Y466047D01*
X146602Y465936D01*
X146797Y465852D01*
X147019Y465797D01*
X147269Y465769D01*
X147491Y465741D01*
X147685Y465714D01*
X147879D01*
Y464714D01*
X147296Y464742D01*
X146686Y464770D01*
X146103D01*
X145575Y464797D01*
X143271D01*
X142743Y464770D01*
X142244D01*
X141855Y464742D01*
X141522D01*
X141411Y464714D01*
X141244D01*
Y465714D01*
X141494Y465741D01*
X141716D01*
X142105Y465797D01*
X142382Y465825D01*
X142577Y465852D01*
X142716Y465880D01*
X142799Y465908D01*
X142854Y465936D01*
X142910Y466019D01*
X142965Y466130D01*
X143049Y466352D01*
Y466463D01*
X143076Y466574D01*
Y466630D01*
Y466657D01*
Y466907D01*
X143104Y467213D01*
Y467546D01*
X143132Y467879D01*
Y468629D01*
X143160Y469378D01*
Y469739D01*
Y470072D01*
Y470378D01*
Y470655D01*
Y470877D01*
Y471044D01*
Y471155D01*
Y471183D01*
Y471516D01*
Y471793D01*
Y472071D01*
X143132Y472293D01*
Y472487D01*
Y472682D01*
X143104Y472959D01*
X143076Y473154D01*
Y473265D01*
X143049Y473320D01*
Y473348D01*
X142965Y473542D01*
X142854Y473709D01*
X142577Y473987D01*
X142466Y474098D01*
X142355Y474181D01*
X142299Y474209D01*
X142271Y474236D01*
X142049Y474375D01*
X141827Y474459D01*
X141383Y474570D01*
X141216Y474597D01*
X141078Y474625D01*
X140939D01*
X140522Y474597D01*
X140162Y474514D01*
X139884Y474375D01*
X139662Y474264D01*
X139495Y474125D01*
X139356Y473987D01*
X139301Y473903D01*
X139273Y473876D01*
X139190Y473709D01*
X139107Y473487D01*
X139051Y473265D01*
X138996Y472987D01*
X138912Y472349D01*
X138857Y471710D01*
X138829Y471127D01*
X138801Y470849D01*
Y470600D01*
Y470405D01*
Y470266D01*
Y470155D01*
Y470128D01*
Y469184D01*
X138857Y468240D01*
X138912Y467379D01*
X138940Y466963D01*
X138968Y466574D01*
X138996Y466241D01*
X139023Y465908D01*
X139051Y465630D01*
X139079Y465380D01*
X139107Y465186D01*
Y465047D01*
X139134Y464964D01*
Y464936D01*
X138996Y464714D01*
X138551Y464742D01*
X138135Y464770D01*
X137746D01*
X137413Y464797D01*
X135831D01*
X135359Y464770D01*
X134942D01*
X134581Y464742D01*
X134276D01*
X134165Y464714D01*
X134026D01*
Y465714D01*
X134443Y465741D01*
X134748Y465769D01*
X134998Y465797D01*
X135192Y465825D01*
X135303Y465852D01*
X135386D01*
X135442Y465880D01*
X135553Y465991D01*
X135609Y466130D01*
X135664Y466241D01*
Y466297D01*
X135692Y466408D01*
Y466546D01*
X135720Y466880D01*
X135747Y467240D01*
Y467629D01*
X135775Y467990D01*
Y468295D01*
Y468406D01*
Y468490D01*
Y468545D01*
Y468573D01*
Y469100D01*
Y469600D01*
X135747Y470128D01*
Y470600D01*
Y471016D01*
X135720Y471183D01*
Y471349D01*
Y471460D01*
Y471544D01*
Y471599D01*
Y471627D01*
X135692Y472654D01*
Y473043D01*
X135720Y473404D01*
X135831Y474042D01*
X135969Y474570D01*
X136136Y474986D01*
X136330Y475319D01*
X136469Y475569D01*
X136580Y475680D01*
X136608Y475736D01*
X136997Y476069D01*
X137441Y476291D01*
X137913Y476457D01*
X138385Y476596D01*
X138801Y476652D01*
X138996Y476679D01*
X139162D01*
X139273Y476707D01*
X139467D01*
X139856Y476679D01*
X140189Y476624D01*
X140467Y476541D01*
X140717Y476457D01*
X140911Y476374D01*
X141050Y476291D01*
X141133Y476235D01*
X141161Y476208D01*
X143271Y474542D01*
X143438Y474930D01*
X143604Y475291D01*
X143798Y475569D01*
X143993Y475791D01*
X144159Y475958D01*
X144298Y476096D01*
X144409Y476152D01*
X144437Y476180D01*
X144742Y476346D01*
X145103Y476485D01*
X145436Y476568D01*
X145770Y476652D01*
X146075Y476679D01*
X146325Y476707D01*
X146547D01*
X146991Y476679D01*
X147408Y476624D01*
X147741Y476541D01*
X148018Y476457D01*
X148213Y476374D01*
X148379Y476291D01*
X148462Y476235D01*
X148490Y476208D01*
X150489Y474708D01*
Y475153D01*
Y475430D01*
Y475625D01*
Y475736D01*
Y475763D01*
X150461Y476013D01*
X150434Y476208D01*
Y476346D01*
Y476374D01*
Y476485D01*
X150461Y476568D01*
X150517Y476679D01*
X150600Y476707D01*
X150711D01*
X150794Y476679D01*
D02*
G37*
G36*
X238634Y476568D02*
X238995Y476430D01*
X239411Y476319D01*
X239800Y476208D01*
X240161Y476124D01*
X240494Y476041D01*
X240744Y475985D01*
X240938Y475930D01*
X240994D01*
X241493Y475847D01*
X241910Y475763D01*
X242271Y475708D01*
X242549Y475680D01*
X242771D01*
X242937Y475652D01*
X243048D01*
Y474708D01*
X242632Y474681D01*
X242299D01*
X242049Y474653D01*
X241854Y474625D01*
X241743D01*
X241660Y474597D01*
X241632D01*
X241549Y474570D01*
X241493Y474514D01*
X241438Y474486D01*
Y474459D01*
X241410Y474403D01*
X241383Y474292D01*
X241355Y474014D01*
X241327Y473876D01*
Y473764D01*
Y473681D01*
Y473653D01*
X241299Y473209D01*
Y472765D01*
X241271Y472293D01*
Y471877D01*
Y471516D01*
Y471210D01*
Y471099D01*
Y471044D01*
Y470988D01*
Y470961D01*
Y470378D01*
Y469850D01*
Y469378D01*
Y468934D01*
X241299Y468545D01*
Y468184D01*
Y467851D01*
Y467574D01*
X241327Y467324D01*
Y467102D01*
Y466935D01*
Y466796D01*
X241355Y466685D01*
Y466602D01*
Y466574D01*
Y466546D01*
X241383Y466380D01*
X241410Y466241D01*
X241438Y466130D01*
X241493Y466047D01*
X241549Y465936D01*
X241577Y465908D01*
X241688Y465852D01*
X241882Y465825D01*
X242104Y465797D01*
X242382Y465769D01*
X242632Y465741D01*
X242854Y465714D01*
X243048D01*
Y464714D01*
X242632Y464742D01*
X241910D01*
X241577Y464770D01*
X240800D01*
X240605Y464797D01*
X238690D01*
X238079Y464770D01*
X237524D01*
X236996Y464742D01*
X236607D01*
X236469Y464714D01*
X236246D01*
Y465714D01*
X236496D01*
X236746Y465741D01*
X237107Y465769D01*
X237412Y465825D01*
X237635Y465852D01*
X237773Y465908D01*
X237885Y465936D01*
X237912Y465963D01*
X237940D01*
X237995Y466047D01*
X238051Y466158D01*
X238107Y466408D01*
Y466519D01*
X238134Y466630D01*
Y466713D01*
Y466741D01*
Y466907D01*
Y467157D01*
Y467463D01*
X238162Y467823D01*
Y468240D01*
Y468656D01*
Y469572D01*
Y470017D01*
Y470433D01*
Y470822D01*
Y471183D01*
Y471460D01*
Y471682D01*
Y471821D01*
Y471877D01*
Y472238D01*
X238134Y472515D01*
Y472737D01*
X238107Y472904D01*
Y473015D01*
X238079Y473070D01*
Y473126D01*
X237995Y473320D01*
X237885Y473487D01*
X237635Y473764D01*
X237496Y473876D01*
X237385Y473959D01*
X237329Y474014D01*
X237302Y474042D01*
X237052Y474181D01*
X236802Y474292D01*
X236552Y474375D01*
X236330Y474431D01*
X236135Y474459D01*
X235969Y474486D01*
X235830D01*
X235386Y474459D01*
X234997Y474347D01*
X234692Y474181D01*
X234442Y474014D01*
X234248Y473848D01*
X234137Y473681D01*
X234053Y473570D01*
X234025Y473542D01*
X233970Y473376D01*
X233887Y473181D01*
X233831Y472932D01*
X233803Y472626D01*
X233720Y472015D01*
X233692Y471349D01*
X233665Y470711D01*
X233637Y470433D01*
Y470183D01*
Y469989D01*
Y469822D01*
Y469711D01*
Y469683D01*
Y468767D01*
X233692Y467879D01*
X233748Y467074D01*
X233776Y466685D01*
X233803Y466352D01*
X233831Y466019D01*
X233859Y465741D01*
X233887Y465464D01*
X233915Y465269D01*
X233942Y465075D01*
Y464964D01*
X233970Y464881D01*
Y464853D01*
X233859Y464714D01*
X231305Y464797D01*
X230305Y464770D01*
X228778Y464714D01*
Y465714D01*
X229167Y465741D01*
X229500Y465797D01*
X229750Y465825D01*
X229917Y465852D01*
X230028D01*
X230111Y465880D01*
X230167D01*
X230278Y465963D01*
X230361Y466074D01*
X230416Y466158D01*
X230444Y466185D01*
X230472Y466324D01*
X230500Y466491D01*
X230527Y466880D01*
X230555Y467046D01*
Y467185D01*
Y467296D01*
Y467324D01*
Y467907D01*
Y468490D01*
X230527Y469073D01*
Y469600D01*
Y470072D01*
X230500Y470294D01*
Y470461D01*
Y470600D01*
Y470711D01*
Y470766D01*
Y470794D01*
X230472Y471155D01*
Y471460D01*
X230444Y471766D01*
Y472015D01*
Y472238D01*
Y472376D01*
Y472487D01*
Y472515D01*
X230472Y473098D01*
X230500Y473626D01*
X230555Y474042D01*
X230639Y474375D01*
X230722Y474653D01*
X230777Y474847D01*
X230805Y474958D01*
X230833Y474986D01*
X230999Y475264D01*
X231194Y475513D01*
X231388Y475736D01*
X231582Y475902D01*
X231777Y476041D01*
X231916Y476152D01*
X232027Y476208D01*
X232054Y476235D01*
X232388Y476402D01*
X232749Y476513D01*
X233109Y476596D01*
X233442Y476652D01*
X233748Y476679D01*
X233970Y476707D01*
X234470D01*
X234720Y476679D01*
X234942Y476652D01*
X235136Y476624D01*
X235303Y476596D01*
X235414Y476568D01*
X235497Y476541D01*
X235525D01*
X235802Y476430D01*
X236052Y476291D01*
X236219Y476180D01*
X236246Y476152D01*
X236274Y476124D01*
X238162Y474514D01*
Y475014D01*
Y475402D01*
Y475708D01*
X238134Y475958D01*
Y476096D01*
Y476208D01*
Y476263D01*
Y476291D01*
X238107Y476402D01*
Y476513D01*
X238134Y476568D01*
X238190Y476679D01*
X238273Y476707D01*
X238301D01*
X238634Y476568D01*
D02*
G37*
G36*
X117258Y476235D02*
X117480Y476180D01*
X117702Y476096D01*
X118257Y475985D01*
X118840Y475902D01*
X119395Y475819D01*
X119923Y475736D01*
X120145Y475708D01*
X120367Y475680D01*
X120534D01*
X120645Y475652D01*
X120756D01*
Y474708D01*
X120506D01*
X120311Y474681D01*
X119951Y474653D01*
X119673Y474625D01*
X119479Y474597D01*
X119340Y474570D01*
X119284Y474542D01*
X119229Y474514D01*
X119118Y474375D01*
X119035Y474236D01*
X119007Y474125D01*
Y474098D01*
Y474070D01*
X118979Y473959D01*
Y473764D01*
Y473570D01*
X118951Y473320D01*
Y472765D01*
X118923Y472182D01*
Y471627D01*
Y471377D01*
Y471127D01*
Y470961D01*
Y470794D01*
Y470711D01*
Y470683D01*
Y470128D01*
Y469545D01*
X118951Y468989D01*
Y468490D01*
Y468046D01*
X118979Y467879D01*
Y467712D01*
Y467574D01*
Y467490D01*
Y467435D01*
Y467407D01*
X119007Y467046D01*
Y466768D01*
X119035Y466546D01*
X119062Y466352D01*
X119090Y466213D01*
X119118Y466130D01*
X119145Y466102D01*
Y466074D01*
X119284Y465908D01*
X119340Y465880D01*
X119368Y465852D01*
X119479Y465825D01*
X119673Y465797D01*
X119895Y465769D01*
X120145Y465741D01*
X120367D01*
X120561Y465714D01*
X120756D01*
Y464714D01*
X119395Y464770D01*
X118951D01*
X118562Y464797D01*
X115814D01*
X115509Y464770D01*
X115037D01*
X113649Y464714D01*
Y465714D01*
X113926D01*
X114176Y465741D01*
X114593Y465769D01*
X114926Y465825D01*
X115176Y465852D01*
X115342Y465908D01*
X115453Y465936D01*
X115481Y465963D01*
X115509D01*
X115620Y466074D01*
X115703Y466241D01*
X115731Y466380D01*
Y466408D01*
Y466435D01*
Y466546D01*
X115758Y466741D01*
Y466963D01*
X115786Y467213D01*
Y467490D01*
Y467796D01*
X115814Y468434D01*
Y469045D01*
Y469323D01*
Y469572D01*
Y469767D01*
Y469933D01*
Y470044D01*
Y470072D01*
Y470461D01*
Y470794D01*
Y471099D01*
X115786Y471377D01*
Y471627D01*
Y471821D01*
Y471988D01*
X115758Y472154D01*
Y472376D01*
X115731Y472515D01*
Y472571D01*
Y472598D01*
X115675Y472793D01*
X115564Y472959D01*
X115342Y473237D01*
X115231Y473348D01*
X115148Y473431D01*
X115092Y473459D01*
X115064Y473487D01*
X114870Y473626D01*
X114648Y473709D01*
X114232Y473820D01*
X114065Y473848D01*
X113926Y473876D01*
X113815D01*
X113454Y473848D01*
X113149Y473792D01*
X113066Y473737D01*
X112982Y473709D01*
X112955Y473681D01*
X112927D01*
X112816Y473598D01*
X112677Y473487D01*
X112483Y473265D01*
X112427Y473154D01*
X112372Y473070D01*
X112316Y473015D01*
Y472987D01*
X111761Y473181D01*
X111733Y473931D01*
X111705Y474625D01*
X111678Y475180D01*
X111650Y475680D01*
X111622Y476069D01*
X111594Y476346D01*
Y476430D01*
X111566Y476513D01*
Y476568D01*
X111872Y476652D01*
X112122Y476679D01*
X112233Y476707D01*
X112621D01*
X112844Y476679D01*
X113038Y476652D01*
X113204Y476596D01*
X113343Y476568D01*
X113427Y476513D01*
X113482Y476485D01*
X113510D01*
X113676Y476374D01*
X113843Y476263D01*
X114148Y475958D01*
X114287Y475791D01*
X114398Y475680D01*
X114454Y475597D01*
X114481Y475569D01*
X114759Y475236D01*
X115037Y474958D01*
X115259Y474681D01*
X115453Y474459D01*
X115647Y474292D01*
X115758Y474153D01*
X115842Y474070D01*
X115870Y474042D01*
Y474570D01*
Y475014D01*
Y475402D01*
X115842Y475708D01*
Y475958D01*
Y476152D01*
Y476263D01*
Y476291D01*
X115814Y476457D01*
X115842Y476596D01*
X115897Y476679D01*
X115981Y476707D01*
X116008D01*
X117258Y476235D01*
D02*
G37*
G36*
X222671Y476679D02*
X222948Y476652D01*
X223198Y476596D01*
X223393Y476568D01*
X223531Y476513D01*
X223615Y476485D01*
X223643D01*
X223976Y476346D01*
X224392Y476124D01*
X224836Y475874D01*
X225280Y475625D01*
X225697Y475402D01*
X226030Y475208D01*
X226169Y475125D01*
X226252Y475069D01*
X226308Y475042D01*
X226335Y475014D01*
Y474514D01*
Y473987D01*
Y473431D01*
X225475Y473237D01*
X224919Y474542D01*
X224670Y474653D01*
X224448Y474736D01*
X224281Y474764D01*
X224253Y474792D01*
X224226D01*
X223976Y474847D01*
X223754Y474875D01*
X223531D01*
X223032Y474847D01*
X222615Y474736D01*
X222254Y474597D01*
X221949Y474431D01*
X221727Y474236D01*
X221588Y474098D01*
X221477Y473987D01*
X221449Y473959D01*
X221283Y473681D01*
X221144Y473348D01*
X221061Y472987D01*
X221005Y472654D01*
X220949Y472349D01*
X220922Y472099D01*
Y471904D01*
Y471877D01*
Y471849D01*
X221699Y471710D01*
X222393Y471544D01*
X223032Y471405D01*
X223615Y471238D01*
X224142Y471099D01*
X224586Y470933D01*
X225003Y470794D01*
X225336Y470683D01*
X225641Y470544D01*
X225891Y470433D01*
X226085Y470322D01*
X226224Y470239D01*
X226363Y470183D01*
X226446Y470128D01*
X226474Y470072D01*
X226502D01*
X226835Y469739D01*
X227057Y469350D01*
X227224Y468934D01*
X227363Y468490D01*
X227418Y468101D01*
X227446Y467796D01*
X227474Y467657D01*
Y467574D01*
Y467518D01*
Y467490D01*
X227446Y466963D01*
X227363Y466491D01*
X227251Y466102D01*
X227113Y465797D01*
X227002Y465547D01*
X226891Y465353D01*
X226807Y465242D01*
X226780Y465214D01*
X226474Y464964D01*
X226169Y464770D01*
X225808Y464659D01*
X225502Y464548D01*
X225197Y464492D01*
X224975Y464464D01*
X224753D01*
X224336Y464492D01*
X223920Y464548D01*
X223781Y464575D01*
X223643Y464603D01*
X223559Y464631D01*
X223531D01*
X220922Y466546D01*
X221033Y464825D01*
X220922Y464714D01*
X220144Y464770D01*
X219783D01*
X219450Y464797D01*
X217701D01*
X217535Y464770D01*
X217257D01*
X216285Y464714D01*
Y465714D01*
X216674Y465769D01*
X216980Y465797D01*
X217202Y465825D01*
X217368Y465880D01*
X217507Y465908D01*
X217563D01*
X217618Y465936D01*
X217729Y466019D01*
X217812Y466130D01*
X217840Y466213D01*
Y466241D01*
Y466324D01*
X217868Y466408D01*
X217896Y466685D01*
Y466991D01*
X217923Y467296D01*
Y467601D01*
Y467851D01*
Y467962D01*
Y468046D01*
Y468073D01*
Y468101D01*
Y468490D01*
Y468934D01*
X217896Y469350D01*
Y469767D01*
Y470128D01*
X217868Y470433D01*
Y470544D01*
Y470627D01*
Y470655D01*
Y470683D01*
X217840Y471238D01*
Y471682D01*
X217812Y472071D01*
Y472349D01*
Y472571D01*
Y472737D01*
Y472821D01*
Y472848D01*
X217840Y473376D01*
X217868Y473820D01*
X217951Y474209D01*
X218034Y474514D01*
X218118Y474764D01*
X218173Y474930D01*
X218229Y475042D01*
X218257Y475069D01*
X218423Y475347D01*
X218645Y475569D01*
X218867Y475791D01*
X219090Y475958D01*
X219284Y476096D01*
X219450Y476180D01*
X219561Y476235D01*
X219589Y476263D01*
X219950Y476402D01*
X220339Y476513D01*
X220727Y476596D01*
X221116Y476652D01*
X221449Y476679D01*
X221699Y476707D01*
X222338D01*
X222671Y476679D01*
D02*
G37*
G36*
X185497D02*
X185775Y476652D01*
X186025Y476596D01*
X186219Y476568D01*
X186358Y476513D01*
X186441Y476485D01*
X186469D01*
X186802Y476346D01*
X187218Y476124D01*
X187663Y475874D01*
X188107Y475625D01*
X188523Y475402D01*
X188856Y475208D01*
X188995Y475125D01*
X189079Y475069D01*
X189134Y475042D01*
X189162Y475014D01*
Y474514D01*
Y473987D01*
Y473431D01*
X188301Y473237D01*
X187746Y474542D01*
X187496Y474653D01*
X187274Y474736D01*
X187107Y474764D01*
X187080Y474792D01*
X187052D01*
X186802Y474847D01*
X186580Y474875D01*
X186358D01*
X185858Y474847D01*
X185442Y474736D01*
X185081Y474597D01*
X184775Y474431D01*
X184553Y474236D01*
X184415Y474098D01*
X184303Y473987D01*
X184276Y473959D01*
X184109Y473681D01*
X183970Y473348D01*
X183887Y472987D01*
X183832Y472654D01*
X183776Y472349D01*
X183748Y472099D01*
Y471904D01*
Y471877D01*
Y471849D01*
X184526Y471710D01*
X185220Y471544D01*
X185858Y471405D01*
X186441Y471238D01*
X186969Y471099D01*
X187413Y470933D01*
X187829Y470794D01*
X188162Y470683D01*
X188468Y470544D01*
X188718Y470433D01*
X188912Y470322D01*
X189051Y470239D01*
X189190Y470183D01*
X189273Y470128D01*
X189301Y470072D01*
X189328D01*
X189662Y469739D01*
X189884Y469350D01*
X190050Y468934D01*
X190189Y468490D01*
X190245Y468101D01*
X190272Y467796D01*
X190300Y467657D01*
Y467574D01*
Y467518D01*
Y467490D01*
X190272Y466963D01*
X190189Y466491D01*
X190078Y466102D01*
X189939Y465797D01*
X189828Y465547D01*
X189717Y465353D01*
X189634Y465242D01*
X189606Y465214D01*
X189301Y464964D01*
X188995Y464770D01*
X188634Y464659D01*
X188329Y464548D01*
X188024Y464492D01*
X187801Y464464D01*
X187579D01*
X187163Y464492D01*
X186747Y464548D01*
X186608Y464575D01*
X186469Y464603D01*
X186386Y464631D01*
X186358D01*
X183748Y466546D01*
X183859Y464825D01*
X183748Y464714D01*
X182971Y464770D01*
X182610D01*
X182277Y464797D01*
X180528D01*
X180361Y464770D01*
X180084D01*
X179112Y464714D01*
Y465714D01*
X179501Y465769D01*
X179806Y465797D01*
X180028Y465825D01*
X180195Y465880D01*
X180333Y465908D01*
X180389D01*
X180445Y465936D01*
X180555Y466019D01*
X180639Y466130D01*
X180667Y466213D01*
Y466241D01*
Y466324D01*
X180694Y466408D01*
X180722Y466685D01*
Y466991D01*
X180750Y467296D01*
Y467601D01*
Y467851D01*
Y467962D01*
Y468046D01*
Y468073D01*
Y468101D01*
Y468490D01*
Y468934D01*
X180722Y469350D01*
Y469767D01*
Y470128D01*
X180694Y470433D01*
Y470544D01*
Y470627D01*
Y470655D01*
Y470683D01*
X180667Y471238D01*
Y471682D01*
X180639Y472071D01*
Y472349D01*
Y472571D01*
Y472737D01*
Y472821D01*
Y472848D01*
X180667Y473376D01*
X180694Y473820D01*
X180778Y474209D01*
X180861Y474514D01*
X180944Y474764D01*
X181000Y474930D01*
X181055Y475042D01*
X181083Y475069D01*
X181250Y475347D01*
X181472Y475569D01*
X181694Y475791D01*
X181916Y475958D01*
X182110Y476096D01*
X182277Y476180D01*
X182388Y476235D01*
X182416Y476263D01*
X182777Y476402D01*
X183165Y476513D01*
X183554Y476596D01*
X183943Y476652D01*
X184276Y476679D01*
X184526Y476707D01*
X185164D01*
X185497Y476679D01*
D02*
G37*
G36*
X127197D02*
X127641Y476624D01*
X128057Y476513D01*
X128418Y476430D01*
X128723Y476319D01*
X128946Y476208D01*
X129084Y476152D01*
X129140Y476124D01*
X129529Y475902D01*
X129889Y475708D01*
X130223Y475513D01*
X130528Y475319D01*
X130750Y475153D01*
X130944Y475042D01*
X131055Y474958D01*
X131083Y474930D01*
X131361Y474681D01*
X131611Y474403D01*
X131833Y474153D01*
X131999Y473903D01*
X132111Y473681D01*
X132194Y473515D01*
X132249Y473404D01*
X132277Y473348D01*
X132416Y472876D01*
X132527Y472404D01*
X132610Y471904D01*
X132666Y471432D01*
X132694Y471016D01*
X132721Y470711D01*
Y470572D01*
Y470489D01*
Y470433D01*
Y470405D01*
X132694Y469878D01*
X132666Y469406D01*
X132582Y468962D01*
X132471Y468517D01*
X132360Y468129D01*
X132249Y467768D01*
X132111Y467435D01*
X131944Y467157D01*
X131805Y466880D01*
X131666Y466657D01*
X131555Y466463D01*
X131444Y466297D01*
X131333Y466185D01*
X131250Y466102D01*
X131222Y466047D01*
X131194Y466019D01*
X130889Y465741D01*
X130556Y465519D01*
X130223Y465297D01*
X129889Y465131D01*
X129168Y464853D01*
X128501Y464659D01*
X128196Y464603D01*
X127891Y464548D01*
X127641Y464520D01*
X127419Y464492D01*
X127224Y464464D01*
X126558D01*
X126142Y464520D01*
X125781Y464548D01*
X125448Y464603D01*
X125198Y464659D01*
X124976Y464686D01*
X124865Y464742D01*
X124809D01*
X124420Y464853D01*
X124087Y464964D01*
X123754Y465103D01*
X123476Y465242D01*
X123227Y465353D01*
X123060Y465464D01*
X122921Y465519D01*
X122893Y465547D01*
X122338Y466741D01*
X122699Y467074D01*
X123199Y466824D01*
X123449Y466713D01*
X123643Y466630D01*
X123837Y466574D01*
X123976Y466519D01*
X124059Y466491D01*
X124087D01*
X124587Y466380D01*
X124809Y466352D01*
X125003Y466324D01*
X125198Y466297D01*
X125448D01*
X126031Y466352D01*
X126586Y466463D01*
X127058Y466630D01*
X127446Y466824D01*
X127752Y467018D01*
X128002Y467185D01*
X128140Y467296D01*
X128196Y467351D01*
X128557Y467796D01*
X128834Y468323D01*
X129057Y468851D01*
X129223Y469378D01*
X129334Y469850D01*
X129362Y470044D01*
X129390Y470211D01*
X129417Y470378D01*
X129445Y470489D01*
Y470544D01*
Y470572D01*
X125642D01*
X125170Y470600D01*
X124504D01*
X124282Y470627D01*
X124115D01*
X122088Y471016D01*
X122061Y471238D01*
Y471405D01*
X122033Y471571D01*
Y471710D01*
Y471793D01*
Y471877D01*
Y471932D01*
X122061Y472376D01*
X122088Y472821D01*
X122144Y473209D01*
X122227Y473542D01*
X122338Y473876D01*
X122449Y474181D01*
X122560Y474459D01*
X122699Y474681D01*
X122810Y474903D01*
X122949Y475069D01*
X123060Y475236D01*
X123143Y475347D01*
X123254Y475458D01*
X123310Y475513D01*
X123338Y475569D01*
X123365D01*
X123893Y475958D01*
X124448Y476235D01*
X125003Y476430D01*
X125531Y476568D01*
X125975Y476652D01*
X126197Y476679D01*
X126364D01*
X126503Y476707D01*
X126697D01*
X127197Y476679D01*
D02*
G37*
G36*
X338772Y482204D02*
X339633Y482121D01*
X340466Y482010D01*
X341215Y481843D01*
X341937Y481677D01*
X342576Y481455D01*
X343159Y481232D01*
X343686Y481010D01*
X344158Y480788D01*
X344575Y480566D01*
X344908Y480344D01*
X345213Y480178D01*
X345435Y480011D01*
X345574Y479900D01*
X345685Y479817D01*
X345713Y479789D01*
X346185Y479317D01*
X346601Y478817D01*
X346962Y478290D01*
X347295Y477762D01*
X347545Y477207D01*
X347767Y476679D01*
X347962Y476152D01*
X348100Y475652D01*
X348211Y475180D01*
X348295Y474736D01*
X348350Y474347D01*
X348378Y473987D01*
X348406Y473709D01*
X348433Y473487D01*
Y473376D01*
Y473320D01*
X348406Y472598D01*
X348322Y471904D01*
X348184Y471266D01*
X348017Y470655D01*
X347795Y470100D01*
X347573Y469572D01*
X347351Y469073D01*
X347073Y468629D01*
X346823Y468240D01*
X346601Y467907D01*
X346351Y467601D01*
X346157Y467351D01*
X345990Y467157D01*
X345852Y467018D01*
X345768Y466935D01*
X345741Y466907D01*
X345213Y466491D01*
X344658Y466102D01*
X344047Y465769D01*
X343436Y465491D01*
X342826Y465269D01*
X342215Y465075D01*
X341604Y464908D01*
X341021Y464770D01*
X340466Y464659D01*
X339938Y464603D01*
X339494Y464548D01*
X339078Y464492D01*
X338745D01*
X338522Y464464D01*
X338300D01*
X337634Y464492D01*
X337023Y464520D01*
X336440Y464575D01*
X335913Y464631D01*
X335496Y464686D01*
X335330D01*
X335163Y464714D01*
X335052Y464742D01*
X334969Y464770D01*
X334886D01*
X334219Y464908D01*
X333553Y465075D01*
X332859Y465269D01*
X332193Y465491D01*
X331915Y465575D01*
X331637Y465658D01*
X331388Y465741D01*
X331193Y465825D01*
X330999Y465880D01*
X330888Y465936D01*
X330804Y465963D01*
X330777D01*
X330804Y466297D01*
X330832Y466602D01*
X330888Y467129D01*
X330916Y467574D01*
X330943Y467907D01*
X330971Y468157D01*
Y468323D01*
Y468406D01*
Y468434D01*
Y468767D01*
X330943Y469128D01*
X330916Y469489D01*
X330860Y469822D01*
X330832Y470100D01*
X330804Y470350D01*
X330777Y470489D01*
Y470544D01*
X330416Y470711D01*
X330111Y470849D01*
X329972Y470905D01*
X329861Y470933D01*
X329805Y470961D01*
X329777D01*
Y471766D01*
X330471Y471738D01*
X331749D01*
X332276Y471710D01*
X334719D01*
X335385Y471738D01*
X336551D01*
X336773Y471766D01*
X337356D01*
Y470766D01*
X336940Y470738D01*
X336551Y470711D01*
X336218Y470683D01*
X335913Y470655D01*
X335663Y470627D01*
X335469Y470600D01*
X335274Y470572D01*
X335135Y470544D01*
X335024Y470516D01*
X334913Y470489D01*
X334802Y470433D01*
X334719Y470405D01*
X334691Y470350D01*
X334636Y470266D01*
X334608Y470155D01*
X334580Y469989D01*
X334552Y469656D01*
X334525Y469295D01*
X334497Y468934D01*
Y468629D01*
Y468490D01*
Y468406D01*
Y468351D01*
Y468323D01*
X334525Y467685D01*
Y467407D01*
X334552Y467129D01*
X334580Y466880D01*
Y466713D01*
X334608Y466602D01*
Y466546D01*
X335247Y466297D01*
X335857Y466102D01*
X336413Y465991D01*
X336912Y465880D01*
X337301Y465825D01*
X337467D01*
X337606Y465797D01*
X337884D01*
X338411Y465825D01*
X338911Y465880D01*
X339383Y465991D01*
X339855Y466130D01*
X340271Y466297D01*
X340660Y466491D01*
X341049Y466685D01*
X341382Y466880D01*
X341660Y467074D01*
X341937Y467268D01*
X342159Y467463D01*
X342354Y467629D01*
X342520Y467768D01*
X342631Y467879D01*
X342687Y467934D01*
X342715Y467962D01*
X343048Y468379D01*
X343353Y468823D01*
X343603Y469295D01*
X343825Y469767D01*
X344019Y470266D01*
X344186Y470738D01*
X344325Y471210D01*
X344408Y471655D01*
X344491Y472071D01*
X344547Y472460D01*
X344602Y472821D01*
X344630Y473126D01*
X344658Y473376D01*
Y473542D01*
Y473681D01*
Y473709D01*
X344630Y474320D01*
X344575Y474903D01*
X344491Y475430D01*
X344352Y475930D01*
X344214Y476402D01*
X344075Y476846D01*
X343908Y477235D01*
X343714Y477596D01*
X343547Y477901D01*
X343381Y478179D01*
X343242Y478401D01*
X343075Y478595D01*
X342964Y478762D01*
X342881Y478873D01*
X342826Y478928D01*
X342798Y478956D01*
X342437Y479289D01*
X342048Y479595D01*
X341632Y479844D01*
X341215Y480094D01*
X340799Y480261D01*
X340355Y480427D01*
X339966Y480566D01*
X339550Y480649D01*
X339189Y480733D01*
X338856Y480788D01*
X338522Y480844D01*
X338273Y480872D01*
X338050Y480899D01*
X337745D01*
X337134Y480872D01*
X336579Y480816D01*
X336107Y480761D01*
X335663Y480677D01*
X335330Y480566D01*
X335080Y480511D01*
X334913Y480455D01*
X334858Y480427D01*
X334414Y480233D01*
X333997Y480039D01*
X333664Y479789D01*
X333359Y479595D01*
X333137Y479372D01*
X332942Y479206D01*
X332831Y479095D01*
X332803Y479067D01*
X332720Y478373D01*
X332692Y478040D01*
X332665Y477707D01*
Y477429D01*
X332637Y477207D01*
Y477068D01*
Y477013D01*
X331582D01*
X331526Y477846D01*
X331443Y478595D01*
X331360Y479261D01*
X331277Y479817D01*
X331249Y480066D01*
X331193Y480289D01*
X331166Y480455D01*
X331138Y480622D01*
X331110Y480733D01*
Y480816D01*
X331082Y480872D01*
Y480899D01*
X331193Y481066D01*
X331776Y481260D01*
X332332Y481455D01*
X332887Y481593D01*
X333359Y481704D01*
X333775Y481815D01*
X333942Y481843D01*
X334108Y481871D01*
X334219Y481899D01*
X334303Y481927D01*
X334386D01*
X334997Y482038D01*
X335607Y482093D01*
X336190Y482149D01*
X336718Y482204D01*
X337162D01*
X337356Y482232D01*
X337828D01*
X338772Y482204D01*
D02*
G37*
G36*
X261343Y476430D02*
X262149Y476180D01*
X262981Y476013D01*
X263731Y475874D01*
X264092Y475819D01*
X264425Y475763D01*
X264703Y475736D01*
X264953Y475708D01*
X265175Y475680D01*
X265313Y475652D01*
X265452D01*
Y474708D01*
X264536Y474653D01*
X264314Y474625D01*
X264120D01*
X263981Y474570D01*
X263870Y474542D01*
X263814Y474514D01*
X263759Y474486D01*
X263731Y474459D01*
X263675Y474375D01*
X263620Y474264D01*
X263592Y473959D01*
X263564Y473820D01*
Y473681D01*
Y473598D01*
Y473570D01*
X263537Y472127D01*
X263509Y471377D01*
X263481Y471044D01*
Y470711D01*
Y470433D01*
Y470211D01*
Y470072D01*
Y470017D01*
Y469545D01*
Y469100D01*
Y468712D01*
X263509Y468351D01*
Y468046D01*
Y467768D01*
X263537Y467518D01*
Y467296D01*
Y467102D01*
X263564Y466963D01*
Y466824D01*
Y466741D01*
X263592Y466602D01*
Y466574D01*
X263620Y466380D01*
X263648Y466213D01*
X263703Y466102D01*
X263759Y465991D01*
X263842Y465880D01*
X263870Y465852D01*
X264009Y465825D01*
X264203Y465797D01*
X264481Y465769D01*
X264730Y465741D01*
X265008D01*
X265230Y465714D01*
X265452D01*
Y464714D01*
X264953Y464742D01*
X264092D01*
X263703Y464770D01*
X262870D01*
X262648Y464797D01*
X260927D01*
X260344Y464770D01*
X259789D01*
X259317Y464742D01*
X258900D01*
X258762Y464714D01*
X258540D01*
Y465714D01*
X258789Y465741D01*
X259011Y465769D01*
X259400Y465797D01*
X259678Y465825D01*
X259872Y465880D01*
X260011Y465908D01*
X260094D01*
X260150Y465936D01*
X260261Y466047D01*
X260316Y466213D01*
X260372Y466352D01*
Y466380D01*
Y466408D01*
Y466546D01*
X260400Y466713D01*
Y466907D01*
X260427Y467129D01*
Y467657D01*
X260455Y468212D01*
Y468712D01*
Y468962D01*
Y469156D01*
Y469323D01*
Y469461D01*
Y469545D01*
Y469572D01*
Y470405D01*
Y471155D01*
X260427Y471877D01*
Y472571D01*
X260400Y473181D01*
Y473737D01*
X260372Y474264D01*
X260344Y474708D01*
Y475125D01*
X260316Y475486D01*
Y475763D01*
X260289Y476013D01*
Y476208D01*
X260261Y476346D01*
Y476430D01*
Y476457D01*
X260594Y476707D01*
X261343Y476430D01*
D02*
G37*
G36*
X210483Y482954D02*
X210900Y482815D01*
X211261Y482676D01*
X211594Y482593D01*
X211871Y482510D01*
X212093Y482454D01*
X212204Y482399D01*
X212260D01*
X212676Y482315D01*
X213121Y482232D01*
X213565Y482149D01*
X214009Y482065D01*
X214398Y482010D01*
X214731Y481954D01*
X214842D01*
X214925Y481927D01*
X215008D01*
Y481205D01*
X214758D01*
X214536Y481177D01*
X214148Y481149D01*
X213870Y481121D01*
X213648Y481094D01*
X213509Y481066D01*
X213426Y481038D01*
X213370Y481010D01*
X213232Y480872D01*
X213204Y480816D01*
Y480788D01*
X213176Y480705D01*
X213148Y480594D01*
Y480427D01*
X213121Y480233D01*
X213093Y479789D01*
Y479317D01*
X213065Y478845D01*
Y478651D01*
Y478456D01*
Y478290D01*
Y478179D01*
Y478095D01*
Y478068D01*
X213037Y472821D01*
Y472182D01*
Y471599D01*
Y471044D01*
Y470544D01*
X213065Y470072D01*
Y469628D01*
Y469239D01*
Y468878D01*
X213093Y468573D01*
Y468295D01*
Y468046D01*
Y467851D01*
X213121Y467712D01*
Y467601D01*
Y467546D01*
Y467518D01*
X213148Y467074D01*
X213176Y466713D01*
X213204Y466435D01*
X213232Y466241D01*
X213287Y466102D01*
X213315Y466019D01*
X213343Y465963D01*
X213426Y465908D01*
X213537Y465852D01*
X213787Y465769D01*
X213926D01*
X214009Y465741D01*
X214120D01*
X215008Y465714D01*
Y464714D01*
X211344Y464797D01*
X210011D01*
X209734Y464770D01*
X209317D01*
X208012Y464714D01*
Y465714D01*
X208429D01*
X208790Y465741D01*
X209039Y465769D01*
X209234D01*
X209345Y465797D01*
X209428Y465825D01*
X209484D01*
X209622Y465908D01*
X209706Y466019D01*
X209761Y466074D01*
X209789Y466102D01*
X209817Y466213D01*
X209845Y466352D01*
Y466574D01*
X209872Y466768D01*
Y466991D01*
Y467157D01*
Y467268D01*
Y467324D01*
X209900Y467934D01*
Y468517D01*
Y469045D01*
X209928Y469545D01*
Y469961D01*
Y470128D01*
Y470266D01*
Y470378D01*
Y470461D01*
Y470516D01*
Y470544D01*
Y471988D01*
Y473348D01*
X209900Y474597D01*
Y475791D01*
X209872Y476902D01*
Y477901D01*
X209845Y478817D01*
X209817Y479650D01*
Y480400D01*
X209789Y481038D01*
Y481566D01*
X209761Y482038D01*
Y482371D01*
X209734Y482648D01*
Y482787D01*
Y482843D01*
X210067Y483120D01*
X210483Y482954D01*
D02*
G37*
G36*
X320838Y482204D02*
X321449Y482177D01*
X322004Y482093D01*
X322531Y481982D01*
X323003Y481871D01*
X323420Y481732D01*
X323809Y481566D01*
X324142Y481427D01*
X324447Y481288D01*
X324697Y481121D01*
X324919Y480983D01*
X325113Y480872D01*
X325252Y480761D01*
X325335Y480705D01*
X325391Y480649D01*
X325419Y480622D01*
X325696Y480316D01*
X325946Y479983D01*
X326168Y479650D01*
X326335Y479317D01*
X326501Y478984D01*
X326640Y478678D01*
X326835Y478040D01*
X326890Y477762D01*
X326946Y477512D01*
X326973Y477262D01*
X327001Y477068D01*
X327029Y476902D01*
Y476791D01*
Y476707D01*
Y476679D01*
X327001Y476180D01*
X326946Y475736D01*
X326835Y475319D01*
X326724Y474958D01*
X326640Y474681D01*
X326529Y474459D01*
X326474Y474347D01*
X326446Y474292D01*
X326196Y473959D01*
X325946Y473653D01*
X325696Y473404D01*
X325446Y473181D01*
X325197Y473043D01*
X325030Y472904D01*
X324919Y472848D01*
X324863Y472821D01*
X324641Y472737D01*
X324392Y472654D01*
X324114Y472571D01*
X323809Y472487D01*
X323170Y472321D01*
X322531Y472210D01*
X321921Y472099D01*
X321643Y472043D01*
X321421Y472015D01*
X321227Y471988D01*
X321088Y471960D01*
X320977Y471932D01*
X320949D01*
X320588Y471877D01*
X320283Y471793D01*
X319700Y471655D01*
X319256Y471488D01*
X318895Y471321D01*
X318617Y471183D01*
X318423Y471072D01*
X318312Y470988D01*
X318284Y470961D01*
X318062Y470683D01*
X317895Y470378D01*
X317756Y470044D01*
X317673Y469739D01*
X317617Y469461D01*
X317590Y469239D01*
Y469073D01*
Y469045D01*
Y469017D01*
X317645Y468517D01*
X317756Y468073D01*
X317923Y467685D01*
X318117Y467351D01*
X318312Y467074D01*
X318478Y466880D01*
X318589Y466768D01*
X318645Y466713D01*
X319061Y466408D01*
X319533Y466185D01*
X320005Y466019D01*
X320449Y465908D01*
X320838Y465852D01*
X321171Y465825D01*
X321282Y465797D01*
X321449D01*
X321837Y465825D01*
X322198Y465852D01*
X322531Y465908D01*
X322837Y465963D01*
X323087Y466019D01*
X323281Y466047D01*
X323392Y466102D01*
X323448D01*
X323781Y466241D01*
X324114Y466380D01*
X324364Y466519D01*
X324614Y466657D01*
X324780Y466768D01*
X324919Y466852D01*
X325002Y466907D01*
X325030Y466935D01*
X325224Y467129D01*
X325391Y467296D01*
X325502Y467435D01*
X325585Y467546D01*
X325696Y467712D01*
X325724Y467768D01*
X325752Y467851D01*
Y467934D01*
X325780Y468240D01*
X325807Y468573D01*
Y468962D01*
X325835Y469323D01*
Y469628D01*
Y469739D01*
Y469822D01*
Y469878D01*
Y469906D01*
X326890D01*
Y469323D01*
X326918Y468795D01*
X326946Y468351D01*
Y467962D01*
X326973Y467685D01*
Y467463D01*
X327001Y467324D01*
Y467268D01*
X327057Y466741D01*
X327112Y466463D01*
X327140Y466241D01*
X327196Y466019D01*
X327223Y465852D01*
X327251Y465741D01*
Y465714D01*
X326751Y465491D01*
X326279Y465297D01*
X325835Y465131D01*
X325446Y464992D01*
X325141Y464881D01*
X324891Y464825D01*
X324725Y464797D01*
X324669Y464770D01*
X324197Y464659D01*
X323697Y464603D01*
X323226Y464548D01*
X322809Y464492D01*
X322420D01*
X322115Y464464D01*
X321865D01*
X321227Y464492D01*
X320644Y464548D01*
X320061Y464631D01*
X319533Y464742D01*
X319061Y464853D01*
X318617Y465019D01*
X318200Y465158D01*
X317840Y465325D01*
X317507Y465491D01*
X317201Y465630D01*
X316951Y465797D01*
X316757Y465908D01*
X316590Y466019D01*
X316479Y466102D01*
X316424Y466158D01*
X316396Y466185D01*
X316035Y466519D01*
X315730Y466880D01*
X315480Y467213D01*
X315230Y467601D01*
X315036Y467962D01*
X314897Y468323D01*
X314758Y468656D01*
X314647Y468989D01*
X314564Y469323D01*
X314508Y469600D01*
X314453Y469850D01*
X314425Y470072D01*
X314397Y470266D01*
Y470405D01*
Y470489D01*
Y470516D01*
X314425Y471044D01*
X314508Y471544D01*
X314591Y471960D01*
X314702Y472321D01*
X314841Y472598D01*
X314925Y472821D01*
X315008Y472932D01*
X315036Y472987D01*
X315285Y473348D01*
X315563Y473653D01*
X315868Y473903D01*
X316174Y474125D01*
X316424Y474264D01*
X316646Y474403D01*
X316785Y474459D01*
X316812Y474486D01*
X316840D01*
X316979Y474542D01*
X317173Y474597D01*
X317590Y474708D01*
X318034Y474792D01*
X318506Y474875D01*
X318922Y474958D01*
X319117Y474986D01*
X319283Y475014D01*
X319422Y475042D01*
X319533Y475069D01*
X319616D01*
X320033Y475125D01*
X320394Y475208D01*
X320727Y475264D01*
X321032Y475319D01*
X321282Y475375D01*
X321532Y475430D01*
X321754Y475486D01*
X321921Y475513D01*
X322226Y475597D01*
X322420Y475652D01*
X322531Y475708D01*
X322559D01*
X322781Y475819D01*
X323003Y475958D01*
X323198Y476096D01*
X323336Y476235D01*
X323448Y476374D01*
X323531Y476485D01*
X323586Y476541D01*
X323614Y476568D01*
X323725Y476791D01*
X323809Y477040D01*
X323919Y477485D01*
X323947Y477679D01*
X323975Y477818D01*
Y477929D01*
Y477957D01*
X323947Y478429D01*
X323836Y478817D01*
X323697Y479178D01*
X323503Y479483D01*
X323336Y479733D01*
X323198Y479928D01*
X323087Y480039D01*
X323059Y480066D01*
X322670Y480344D01*
X322254Y480538D01*
X321810Y480705D01*
X321393Y480788D01*
X321032Y480844D01*
X320727Y480899D01*
X320449D01*
X320005Y480872D01*
X319589Y480816D01*
X319200Y480761D01*
X318895Y480677D01*
X318617Y480566D01*
X318423Y480511D01*
X318312Y480455D01*
X318256Y480427D01*
X317923Y480261D01*
X317673Y480094D01*
X317451Y479955D01*
X317312Y479844D01*
X317201Y479733D01*
X317118Y479650D01*
X317062Y479595D01*
Y479567D01*
X317034Y479511D01*
Y479400D01*
X317007Y479289D01*
X316979Y479150D01*
X316951Y478789D01*
X316923Y478429D01*
X316896Y478068D01*
X316868Y477762D01*
Y477623D01*
Y477540D01*
Y477485D01*
Y477457D01*
X315813D01*
X315785Y477984D01*
X315757Y478429D01*
Y478817D01*
X315730Y479095D01*
Y479317D01*
X315702Y479483D01*
Y479567D01*
Y479595D01*
X315619Y480094D01*
X315563Y480316D01*
X315508Y480538D01*
X315480Y480733D01*
X315424Y480872D01*
X315396Y480983D01*
Y481010D01*
X315535Y481316D01*
X316340Y481621D01*
X316701Y481732D01*
X317034Y481843D01*
X317312Y481927D01*
X317534Y481982D01*
X317673Y482010D01*
X317729D01*
X318145Y482093D01*
X318561Y482149D01*
X318978Y482177D01*
X319366Y482204D01*
X319700Y482232D01*
X320199D01*
X320838Y482204D01*
D02*
G37*
G36*
X273892D02*
X274503Y482177D01*
X275058Y482093D01*
X275585Y481982D01*
X276057Y481871D01*
X276474Y481732D01*
X276863Y481566D01*
X277196Y481427D01*
X277501Y481288D01*
X277751Y481121D01*
X277973Y480983D01*
X278167Y480872D01*
X278306Y480761D01*
X278389Y480705D01*
X278445Y480649D01*
X278473Y480622D01*
X278750Y480316D01*
X279000Y479983D01*
X279222Y479650D01*
X279389Y479317D01*
X279555Y478984D01*
X279694Y478678D01*
X279889Y478040D01*
X279944Y477762D01*
X280000Y477512D01*
X280028Y477262D01*
X280055Y477068D01*
X280083Y476902D01*
Y476791D01*
Y476707D01*
Y476679D01*
X280055Y476180D01*
X280000Y475736D01*
X279889Y475319D01*
X279778Y474958D01*
X279694Y474681D01*
X279583Y474459D01*
X279528Y474347D01*
X279500Y474292D01*
X279250Y473959D01*
X279000Y473653D01*
X278750Y473404D01*
X278501Y473181D01*
X278251Y473043D01*
X278084Y472904D01*
X277973Y472848D01*
X277918Y472821D01*
X277696Y472737D01*
X277446Y472654D01*
X277168Y472571D01*
X276863Y472487D01*
X276224Y472321D01*
X275585Y472210D01*
X274975Y472099D01*
X274697Y472043D01*
X274475Y472015D01*
X274281Y471988D01*
X274142Y471960D01*
X274031Y471932D01*
X274003D01*
X273642Y471877D01*
X273337Y471793D01*
X272754Y471655D01*
X272310Y471488D01*
X271949Y471321D01*
X271671Y471183D01*
X271477Y471072D01*
X271366Y470988D01*
X271338Y470961D01*
X271116Y470683D01*
X270949Y470378D01*
X270810Y470044D01*
X270727Y469739D01*
X270672Y469461D01*
X270644Y469239D01*
Y469073D01*
Y469045D01*
Y469017D01*
X270699Y468517D01*
X270810Y468073D01*
X270977Y467685D01*
X271171Y467351D01*
X271366Y467074D01*
X271532Y466880D01*
X271643Y466768D01*
X271699Y466713D01*
X272115Y466408D01*
X272587Y466185D01*
X273059Y466019D01*
X273503Y465908D01*
X273892Y465852D01*
X274225Y465825D01*
X274336Y465797D01*
X274503D01*
X274891Y465825D01*
X275252Y465852D01*
X275585Y465908D01*
X275891Y465963D01*
X276141Y466019D01*
X276335Y466047D01*
X276446Y466102D01*
X276502D01*
X276835Y466241D01*
X277168Y466380D01*
X277418Y466519D01*
X277668Y466657D01*
X277834Y466768D01*
X277973Y466852D01*
X278056Y466907D01*
X278084Y466935D01*
X278279Y467129D01*
X278445Y467296D01*
X278556Y467435D01*
X278639Y467546D01*
X278750Y467712D01*
X278778Y467768D01*
X278806Y467851D01*
Y467934D01*
X278834Y468240D01*
X278862Y468573D01*
Y468962D01*
X278889Y469323D01*
Y469628D01*
Y469739D01*
Y469822D01*
Y469878D01*
Y469906D01*
X279944D01*
Y469323D01*
X279972Y468795D01*
X280000Y468351D01*
Y467962D01*
X280028Y467685D01*
Y467463D01*
X280055Y467324D01*
Y467268D01*
X280111Y466741D01*
X280166Y466463D01*
X280194Y466241D01*
X280250Y466019D01*
X280277Y465852D01*
X280305Y465741D01*
Y465714D01*
X279805Y465491D01*
X279333Y465297D01*
X278889Y465131D01*
X278501Y464992D01*
X278195Y464881D01*
X277945Y464825D01*
X277779Y464797D01*
X277723Y464770D01*
X277251Y464659D01*
X276751Y464603D01*
X276280Y464548D01*
X275863Y464492D01*
X275474D01*
X275169Y464464D01*
X274919D01*
X274281Y464492D01*
X273698Y464548D01*
X273115Y464631D01*
X272587Y464742D01*
X272115Y464853D01*
X271671Y465019D01*
X271255Y465158D01*
X270894Y465325D01*
X270561Y465491D01*
X270255Y465630D01*
X270005Y465797D01*
X269811Y465908D01*
X269644Y466019D01*
X269533Y466102D01*
X269478Y466158D01*
X269450Y466185D01*
X269089Y466519D01*
X268784Y466880D01*
X268534Y467213D01*
X268284Y467601D01*
X268090Y467962D01*
X267951Y468323D01*
X267812Y468656D01*
X267701Y468989D01*
X267618Y469323D01*
X267562Y469600D01*
X267507Y469850D01*
X267479Y470072D01*
X267451Y470266D01*
Y470405D01*
Y470489D01*
Y470516D01*
X267479Y471044D01*
X267562Y471544D01*
X267645Y471960D01*
X267757Y472321D01*
X267895Y472598D01*
X267979Y472821D01*
X268062Y472932D01*
X268090Y472987D01*
X268340Y473348D01*
X268617Y473653D01*
X268923Y473903D01*
X269228Y474125D01*
X269478Y474264D01*
X269700Y474403D01*
X269839Y474459D01*
X269867Y474486D01*
X269894D01*
X270033Y474542D01*
X270227Y474597D01*
X270644Y474708D01*
X271088Y474792D01*
X271560Y474875D01*
X271976Y474958D01*
X272171Y474986D01*
X272337Y475014D01*
X272476Y475042D01*
X272587Y475069D01*
X272670D01*
X273087Y475125D01*
X273448Y475208D01*
X273781Y475264D01*
X274086Y475319D01*
X274336Y475375D01*
X274586Y475430D01*
X274808Y475486D01*
X274975Y475513D01*
X275280Y475597D01*
X275474Y475652D01*
X275585Y475708D01*
X275613D01*
X275835Y475819D01*
X276057Y475958D01*
X276252Y476096D01*
X276391Y476235D01*
X276502Y476374D01*
X276585Y476485D01*
X276640Y476541D01*
X276668Y476568D01*
X276779Y476791D01*
X276863Y477040D01*
X276974Y477485D01*
X277001Y477679D01*
X277029Y477818D01*
Y477929D01*
Y477957D01*
X277001Y478429D01*
X276890Y478817D01*
X276751Y479178D01*
X276557Y479483D01*
X276391Y479733D01*
X276252Y479928D01*
X276141Y480039D01*
X276113Y480066D01*
X275724Y480344D01*
X275308Y480538D01*
X274864Y480705D01*
X274447Y480788D01*
X274086Y480844D01*
X273781Y480899D01*
X273503D01*
X273059Y480872D01*
X272643Y480816D01*
X272254Y480761D01*
X271949Y480677D01*
X271671Y480566D01*
X271477Y480511D01*
X271366Y480455D01*
X271310Y480427D01*
X270977Y480261D01*
X270727Y480094D01*
X270505Y479955D01*
X270366Y479844D01*
X270255Y479733D01*
X270172Y479650D01*
X270116Y479595D01*
Y479567D01*
X270089Y479511D01*
Y479400D01*
X270061Y479289D01*
X270033Y479150D01*
X270005Y478789D01*
X269978Y478429D01*
X269950Y478068D01*
X269922Y477762D01*
Y477623D01*
Y477540D01*
Y477485D01*
Y477457D01*
X268867D01*
X268839Y477984D01*
X268812Y478429D01*
Y478817D01*
X268784Y479095D01*
Y479317D01*
X268756Y479483D01*
Y479567D01*
Y479595D01*
X268673Y480094D01*
X268617Y480316D01*
X268562Y480538D01*
X268534Y480733D01*
X268478Y480872D01*
X268451Y480983D01*
Y481010D01*
X268589Y481316D01*
X269395Y481621D01*
X269755Y481732D01*
X270089Y481843D01*
X270366Y481927D01*
X270588Y481982D01*
X270727Y482010D01*
X270783D01*
X271199Y482093D01*
X271616Y482149D01*
X272032Y482177D01*
X272421Y482204D01*
X272754Y482232D01*
X273253D01*
X273892Y482204D01*
D02*
G37*
G36*
X224170Y454314D02*
X224142Y453731D01*
X224114Y453204D01*
Y452732D01*
X224087Y452343D01*
Y452010D01*
Y451760D01*
Y451594D01*
Y451566D01*
Y451538D01*
Y450844D01*
Y450233D01*
X224114Y449678D01*
Y449206D01*
X224142Y448790D01*
Y448512D01*
X224170Y448401D01*
Y448318D01*
Y448290D01*
Y448262D01*
X223171Y448207D01*
X223059Y448318D01*
X223032Y448679D01*
X223004Y448984D01*
X222948Y449289D01*
X222921Y449539D01*
X222893Y449761D01*
X222865Y449956D01*
X222810Y450289D01*
X222754Y450511D01*
X222698Y450650D01*
X222671Y450733D01*
Y450761D01*
X222560Y450927D01*
X222449Y451038D01*
X222365Y451094D01*
X222338Y451122D01*
X222254Y451149D01*
X222115Y451177D01*
X221810Y451233D01*
X221449Y451260D01*
X221033D01*
X220672Y451288D01*
X220033D01*
X217840Y451260D01*
X215342Y451233D01*
X215203Y451011D01*
X217424Y447096D01*
X217840Y446374D01*
X218201Y445736D01*
X218562Y445097D01*
X218895Y444542D01*
X219200Y444015D01*
X219478Y443543D01*
X219728Y443126D01*
X219950Y442738D01*
X220144Y442404D01*
X220311Y442127D01*
X220450Y441877D01*
X220561Y441683D01*
X220672Y441516D01*
X220727Y441405D01*
X220755Y441349D01*
X220783Y441322D01*
X221199Y440628D01*
X221616Y439934D01*
X222005Y439295D01*
X222365Y438712D01*
X222532Y438434D01*
X222698Y438212D01*
X222810Y437990D01*
X222921Y437796D01*
X223032Y437657D01*
X223087Y437546D01*
X223115Y437490D01*
X223143Y437463D01*
X223032Y437102D01*
X222726Y437130D01*
X222421Y437157D01*
X222171D01*
X221977Y437185D01*
X221144D01*
X220672Y437157D01*
X220450Y437130D01*
X220256D01*
X220144Y437102D01*
X220089D01*
X219922Y437574D01*
X219728Y438101D01*
X219506Y438656D01*
X219284Y439239D01*
X218784Y440405D01*
X218534Y440988D01*
X218312Y441544D01*
X218062Y442071D01*
X217840Y442571D01*
X217646Y443015D01*
X217479Y443404D01*
X217313Y443737D01*
X217202Y443987D01*
X217146Y444126D01*
X217118Y444181D01*
X216285Y445930D01*
X215869Y446763D01*
X215453Y447568D01*
X215036Y448373D01*
X214648Y449095D01*
X214287Y449817D01*
X213926Y450455D01*
X213592Y451066D01*
X213287Y451594D01*
X213037Y452066D01*
X212815Y452482D01*
X212621Y452787D01*
X212482Y453037D01*
X212399Y453176D01*
X212371Y453232D01*
Y454425D01*
X213259Y454398D01*
X214065Y454370D01*
X215092D01*
X215397Y454342D01*
X217979D01*
X219339Y454370D01*
X219978Y454398D01*
X220589D01*
X221172Y454425D01*
X221699Y454453D01*
X222199D01*
X222643Y454481D01*
X223032D01*
X223365Y454509D01*
X223615D01*
X223809Y454536D01*
X223976D01*
X224170Y454314D01*
D02*
G37*
G36*
X198879Y453426D02*
X198185Y453343D01*
X197879Y453315D01*
X197657Y453287D01*
X197463Y453232D01*
X197324Y453204D01*
X197241Y453148D01*
X197157Y453120D01*
X197130Y453093D01*
X197102Y453037D01*
X197074Y452954D01*
X196991Y452704D01*
X196963Y452399D01*
X196908Y452066D01*
X196880Y451760D01*
Y451483D01*
X196852Y451371D01*
Y451288D01*
Y451233D01*
Y451205D01*
X196824Y450872D01*
Y450483D01*
Y450067D01*
X196796Y449595D01*
Y448679D01*
X196769Y447735D01*
Y447290D01*
Y446874D01*
Y446513D01*
Y446180D01*
Y445930D01*
Y445708D01*
Y445597D01*
Y445541D01*
Y444736D01*
Y443959D01*
X196796Y443237D01*
Y442571D01*
Y442266D01*
Y442016D01*
X196824Y441766D01*
Y441572D01*
Y441405D01*
Y441294D01*
Y441211D01*
Y441183D01*
Y440794D01*
X196852Y440433D01*
Y440100D01*
X196880Y439822D01*
Y439600D01*
X196908Y439378D01*
X196935Y439212D01*
Y439045D01*
X196963Y438823D01*
X196991Y438684D01*
X197019Y438629D01*
Y438601D01*
X197074Y438490D01*
X197157Y438407D01*
X197213Y438379D01*
X197241Y438351D01*
X197296Y438323D01*
X197379D01*
X197574Y438268D01*
X197851Y438240D01*
X198129Y438212D01*
X198407Y438185D01*
X198657Y438157D01*
X198823Y438129D01*
X198879D01*
Y437130D01*
X198185Y437157D01*
X197046D01*
X196546Y437185D01*
X195464D01*
X195186Y437213D01*
X193160D01*
X192549Y437185D01*
X191966D01*
X191466Y437157D01*
X191050D01*
X190911Y437130D01*
X190689D01*
Y438129D01*
X191022Y438157D01*
X191299Y438185D01*
X191549D01*
X191799Y438212D01*
X191994Y438240D01*
X192160D01*
X192438Y438296D01*
X192604Y438323D01*
X192715D01*
X192771Y438351D01*
X192799D01*
X192910Y438434D01*
X192965Y438545D01*
X193021Y438629D01*
Y438656D01*
X193048Y438740D01*
Y438823D01*
X193076Y438962D01*
Y439128D01*
X193104Y439462D01*
X193132Y439850D01*
Y440239D01*
X193160Y440544D01*
Y440683D01*
Y440766D01*
Y440822D01*
Y440850D01*
Y441710D01*
X193187Y442460D01*
Y443154D01*
X193215Y443737D01*
Y444292D01*
Y444736D01*
Y445125D01*
X193243Y445486D01*
Y445764D01*
Y445986D01*
Y446152D01*
Y446291D01*
Y446402D01*
Y446458D01*
Y446513D01*
Y447013D01*
Y447540D01*
X193215Y448651D01*
Y449734D01*
X193187Y450233D01*
Y450733D01*
Y451205D01*
X193160Y451621D01*
Y452010D01*
Y452343D01*
X193132Y452621D01*
Y452815D01*
Y452926D01*
Y452982D01*
X192826Y453037D01*
X192521Y453093D01*
X192271Y453120D01*
X192049Y453148D01*
X191882Y453176D01*
X191633D01*
X191077Y453148D01*
X190578Y453037D01*
X190161Y452898D01*
X189828Y452760D01*
X189550Y452593D01*
X189384Y452454D01*
X189245Y452343D01*
X189217Y452315D01*
X188940Y451954D01*
X188745Y451538D01*
X188579Y451122D01*
X188496Y450705D01*
X188440Y450317D01*
X188384Y450011D01*
Y449900D01*
Y449817D01*
Y449761D01*
Y449734D01*
X188412Y449206D01*
X188496Y448706D01*
X188634Y448318D01*
X188773Y447957D01*
X188940Y447707D01*
X189051Y447513D01*
X189162Y447374D01*
X189190Y447346D01*
X189495Y447068D01*
X189828Y446846D01*
X190161Y446707D01*
X190494Y446596D01*
X190772Y446541D01*
X190994Y446513D01*
X191161Y446485D01*
X191355D01*
X191494Y446513D01*
X191633D01*
X191799Y446541D01*
X191966Y446569D01*
X192077Y446596D01*
X192132D01*
X192410Y446291D01*
X192243Y445986D01*
X192105Y445708D01*
X192077Y445597D01*
X192021Y445514D01*
X191994Y445458D01*
Y445430D01*
X191688Y445375D01*
X191438Y445319D01*
X191272Y445292D01*
X191216D01*
X190966Y445264D01*
X190550D01*
X190078Y445292D01*
X189662Y445319D01*
X188856Y445514D01*
X188162Y445736D01*
X187829Y445875D01*
X187552Y446041D01*
X187302Y446180D01*
X187080Y446319D01*
X186885Y446430D01*
X186719Y446541D01*
X186608Y446652D01*
X186524Y446735D01*
X186469Y446763D01*
X186441Y446791D01*
X186164Y447096D01*
X185886Y447402D01*
X185692Y447735D01*
X185497Y448040D01*
X185331Y448373D01*
X185192Y448679D01*
X184998Y449289D01*
X184886Y449817D01*
X184859Y450039D01*
X184831Y450233D01*
X184803Y450400D01*
Y450511D01*
Y450594D01*
Y450622D01*
X184831Y451066D01*
X184886Y451483D01*
X184970Y451843D01*
X185081Y452121D01*
X185192Y452371D01*
X185275Y452565D01*
X185331Y452676D01*
X185358Y452704D01*
X185581Y453009D01*
X185830Y453259D01*
X186108Y453481D01*
X186358Y453676D01*
X186608Y453815D01*
X186802Y453898D01*
X186913Y453953D01*
X186969Y453981D01*
X187413Y454120D01*
X187913Y454231D01*
X188468Y454314D01*
X188995Y454370D01*
X189467Y454398D01*
X189662Y454425D01*
X190772D01*
X191077Y454398D01*
X191660D01*
X191882Y454370D01*
X193243D01*
X193576Y454342D01*
X196436D01*
X196741Y454370D01*
X197491D01*
X198879Y454425D01*
Y453426D01*
D02*
G37*
G36*
X270061Y454620D02*
X270533Y454592D01*
X270949Y454509D01*
X271338Y454425D01*
X271643Y454342D01*
X271865Y454286D01*
X272004Y454231D01*
X272060Y454203D01*
X272448Y454009D01*
X272837Y453787D01*
X273170Y453565D01*
X273476Y453343D01*
X273725Y453148D01*
X273920Y452982D01*
X274031Y452871D01*
X274086Y452815D01*
X274142Y452093D01*
X274197Y451344D01*
X274281Y450622D01*
X274364Y449956D01*
X274419Y449650D01*
X274447Y449373D01*
X274503Y449123D01*
X274531Y448901D01*
X274558Y448734D01*
Y448595D01*
X274586Y448512D01*
Y448484D01*
X273559D01*
X273476Y448817D01*
X273420Y449123D01*
X273337Y449373D01*
X273281Y449595D01*
X273226Y449817D01*
X273198Y449983D01*
X273115Y450233D01*
X273087Y450400D01*
X273059Y450511D01*
X273031Y450566D01*
X272948Y450705D01*
X272809Y450844D01*
X272532Y451122D01*
X272393Y451233D01*
X272254Y451288D01*
X272171Y451344D01*
X272143Y451371D01*
X271865Y451510D01*
X271560Y451621D01*
X271282Y451705D01*
X271005Y451760D01*
X270783Y451788D01*
X270616Y451816D01*
X270450D01*
X269978Y451788D01*
X269589Y451705D01*
X269228Y451566D01*
X268923Y451427D01*
X268701Y451260D01*
X268534Y451149D01*
X268423Y451038D01*
X268395Y451011D01*
X268145Y450677D01*
X267951Y450317D01*
X267840Y449928D01*
X267729Y449567D01*
X267673Y449234D01*
X267645Y448956D01*
Y448845D01*
Y448762D01*
Y448734D01*
Y448706D01*
X267673Y448151D01*
X267784Y447596D01*
X267951Y447068D01*
X268118Y446596D01*
X268284Y446180D01*
X268451Y445875D01*
X268506Y445764D01*
X268562Y445680D01*
X268589Y445625D01*
Y445597D01*
X268784Y445292D01*
X269034Y444931D01*
X269311Y444570D01*
X269617Y444181D01*
X270283Y443432D01*
X270949Y442682D01*
X271282Y442321D01*
X271588Y442016D01*
X271893Y441710D01*
X272143Y441460D01*
X272337Y441238D01*
X272504Y441100D01*
X272615Y440988D01*
X272643Y440961D01*
X275197Y438462D01*
Y437102D01*
X274503Y437130D01*
X273226D01*
X272643Y437157D01*
X271144D01*
X270727Y437185D01*
X266952D01*
X266452Y437157D01*
X265175D01*
X264842Y437130D01*
X264009D01*
X263842Y437102D01*
X263592D01*
X263453Y437213D01*
X263481Y437490D01*
X263509Y437740D01*
X263537Y437962D01*
Y438157D01*
X263564Y438323D01*
Y438434D01*
Y438490D01*
Y438518D01*
Y438740D01*
X263537Y438990D01*
X263509Y439517D01*
X263481Y439767D01*
Y439961D01*
X263453Y440072D01*
Y440128D01*
X263592Y440294D01*
X263953Y440267D01*
X264314Y440239D01*
X265119Y440211D01*
X265952Y440156D01*
X267118D01*
X267451Y440128D01*
X271477D01*
X271560Y440267D01*
X270644Y441100D01*
X269839Y441849D01*
X269089Y442543D01*
X268451Y443154D01*
X267868Y443737D01*
X267368Y444237D01*
X266924Y444709D01*
X266563Y445097D01*
X266257Y445430D01*
X265980Y445736D01*
X265786Y445986D01*
X265619Y446180D01*
X265508Y446319D01*
X265425Y446430D01*
X265369Y446485D01*
Y446513D01*
X264980Y447152D01*
X264703Y447762D01*
X264508Y448318D01*
X264370Y448845D01*
X264286Y449289D01*
X264259Y449456D01*
Y449622D01*
X264231Y449734D01*
Y449817D01*
Y449872D01*
Y449900D01*
X264259Y450289D01*
X264286Y450650D01*
X264453Y451316D01*
X264675Y451899D01*
X264953Y452399D01*
X265230Y452787D01*
X265341Y452954D01*
X265452Y453065D01*
X265536Y453176D01*
X265619Y453259D01*
X265647Y453287D01*
X265674Y453315D01*
X265952Y453537D01*
X266257Y453759D01*
X266868Y454092D01*
X267535Y454314D01*
X268145Y454481D01*
X268701Y454592D01*
X268950Y454620D01*
X269145D01*
X269311Y454647D01*
X269561D01*
X270061Y454620D01*
D02*
G37*
G36*
X202932D02*
X203404Y454592D01*
X204292Y454425D01*
X205097Y454203D01*
X205458Y454064D01*
X205791Y453953D01*
X206124Y453815D01*
X206402Y453703D01*
X206652Y453565D01*
X206846Y453481D01*
X207013Y453398D01*
X207124Y453315D01*
X207207Y453287D01*
X207235Y453259D01*
X208012Y452704D01*
X208679Y452121D01*
X209262Y451510D01*
X209734Y450955D01*
X210122Y450428D01*
X210261Y450205D01*
X210372Y450011D01*
X210483Y449872D01*
X210539Y449761D01*
X210567Y449678D01*
X210594Y449650D01*
X210983Y448762D01*
X211261Y447846D01*
X211483Y446930D01*
X211621Y446041D01*
X211649Y445653D01*
X211705Y445264D01*
X211733Y444931D01*
Y444653D01*
X211760Y444431D01*
Y444237D01*
Y444126D01*
Y444098D01*
X211733Y443209D01*
X211649Y442404D01*
X211594Y442043D01*
X211538Y441710D01*
X211483Y441405D01*
X211399Y441127D01*
X211344Y440877D01*
X211288Y440655D01*
X211233Y440489D01*
X211177Y440322D01*
X211122Y440211D01*
X211094Y440128D01*
X211066Y440072D01*
Y440045D01*
X210789Y439517D01*
X210455Y439045D01*
X210150Y438629D01*
X209845Y438296D01*
X209567Y438018D01*
X209317Y437851D01*
X209178Y437713D01*
X209123Y437685D01*
X208623Y437407D01*
X208123Y437213D01*
X207624Y437074D01*
X207180Y436991D01*
X206763Y436935D01*
X206458Y436880D01*
X206180D01*
X205736Y436907D01*
X205319Y436963D01*
X204931Y437019D01*
X204542Y437130D01*
X203876Y437407D01*
X203570Y437546D01*
X203321Y437713D01*
X203071Y437851D01*
X202876Y437990D01*
X202682Y438129D01*
X202543Y438268D01*
X202432Y438379D01*
X202321Y438434D01*
X202293Y438490D01*
X202266Y438518D01*
X201960Y438879D01*
X201710Y439239D01*
X201488Y439628D01*
X201294Y440017D01*
X201127Y440405D01*
X200989Y440794D01*
X200794Y441516D01*
X200711Y441849D01*
X200655Y442182D01*
X200628Y442460D01*
X200600Y442682D01*
X200572Y442876D01*
Y443043D01*
Y443126D01*
Y443154D01*
X200628Y443959D01*
X200739Y444681D01*
X200933Y445292D01*
X201127Y445791D01*
X201322Y446180D01*
X201433Y446347D01*
X201516Y446485D01*
X201572Y446569D01*
X201627Y446652D01*
X201683Y446680D01*
Y446707D01*
X201905Y446930D01*
X202127Y447124D01*
X202599Y447457D01*
X203071Y447679D01*
X203543Y447818D01*
X203959Y447929D01*
X204264Y447957D01*
X204403Y447985D01*
X204570D01*
X204958Y447957D01*
X205319Y447929D01*
X205653Y447873D01*
X205902Y447790D01*
X206124Y447707D01*
X206291Y447651D01*
X206402Y447624D01*
X206430Y447596D01*
X206541Y447540D01*
X206652Y447457D01*
X206957Y447235D01*
X207263Y446957D01*
X207596Y446652D01*
X207901Y446374D01*
X208151Y446124D01*
X208318Y445958D01*
X208346Y445930D01*
X208373Y445902D01*
X208318Y446402D01*
X208262Y446874D01*
X208207Y447318D01*
X208123Y447735D01*
X208068Y448096D01*
X207985Y448456D01*
X207901Y448762D01*
X207818Y449067D01*
X207735Y449317D01*
X207679Y449539D01*
X207596Y449706D01*
X207540Y449872D01*
X207485Y449983D01*
X207457Y450094D01*
X207429Y450122D01*
Y450150D01*
X207124Y450705D01*
X206791Y451177D01*
X206458Y451566D01*
X206124Y451927D01*
X205847Y452177D01*
X205625Y452371D01*
X205458Y452510D01*
X205403Y452537D01*
X204931Y452843D01*
X204459Y453065D01*
X204042Y453204D01*
X203654Y453315D01*
X203321Y453370D01*
X203098Y453426D01*
X202738D01*
X202543Y453398D01*
X202210Y453370D01*
X202043Y453343D01*
X201905Y453315D01*
X201821Y453287D01*
X201794D01*
X201405Y453703D01*
X202460Y454647D01*
X202932Y454620D01*
D02*
G37*
G36*
X228806Y454342D02*
X229417Y454203D01*
X229944Y454092D01*
X230416Y454009D01*
X230777Y453926D01*
X231055Y453898D01*
X231222Y453842D01*
X231277D01*
X231916Y452954D01*
X232554Y452038D01*
X233137Y451094D01*
X233665Y450233D01*
X233915Y449845D01*
X234137Y449484D01*
X234331Y449151D01*
X234498Y448873D01*
X234608Y448651D01*
X234720Y448484D01*
X234775Y448373D01*
X234803Y448345D01*
X235441Y447179D01*
X236024Y446069D01*
X236302Y445569D01*
X236552Y445097D01*
X236746Y444625D01*
X236968Y444237D01*
X237135Y443848D01*
X237302Y443515D01*
X237440Y443209D01*
X237551Y442987D01*
X237635Y442765D01*
X237690Y442626D01*
X237746Y442543D01*
Y442515D01*
X237635Y441766D01*
X237579Y441460D01*
X236552Y441488D01*
X235469D01*
X234442Y441516D01*
X231333D01*
X231360Y441100D01*
Y440739D01*
X231388Y440433D01*
X231416Y440128D01*
X231444Y439878D01*
Y439684D01*
X231471Y439489D01*
Y439323D01*
X231499Y439101D01*
X231527Y438962D01*
X231555Y438879D01*
Y438851D01*
X231666Y438656D01*
X231805Y438518D01*
X231943Y438462D01*
X231971Y438434D01*
X232054D01*
X232165Y438407D01*
X232304D01*
X232471Y438379D01*
X232859Y438351D01*
X233276Y438323D01*
X233665Y438296D01*
X234025D01*
X234164Y438268D01*
X234359D01*
X234442Y438157D01*
Y437213D01*
X234331Y437102D01*
X231610Y437185D01*
X228612D01*
X227946Y437157D01*
X227307D01*
X227029Y437130D01*
X226308D01*
X226141Y437102D01*
X225919D01*
X225780Y437213D01*
Y438073D01*
X225919Y438157D01*
X226252Y438185D01*
X226530Y438212D01*
X226807Y438240D01*
X227029Y438268D01*
X227224Y438296D01*
X227390Y438351D01*
X227668Y438407D01*
X227862Y438462D01*
X227973Y438518D01*
X228001Y438573D01*
X228029D01*
X228057Y438629D01*
X228084Y438740D01*
X228112Y438879D01*
X228140Y439045D01*
X228168Y439434D01*
X228195Y439850D01*
X228223Y440267D01*
Y440600D01*
Y440739D01*
Y440850D01*
Y440905D01*
Y440933D01*
X228195Y441516D01*
X227751D01*
X227335Y441488D01*
X226974D01*
X226613Y441460D01*
X226335Y441433D01*
X226113D01*
X225975Y441405D01*
X225919D01*
X225863Y441488D01*
X225891Y442266D01*
X225863Y443015D01*
X225836Y443432D01*
X225919Y443626D01*
X226280D01*
X226668Y443598D01*
X228195D01*
X228029Y450622D01*
X228001Y451316D01*
X227973Y451982D01*
X227946Y452593D01*
X227918Y453120D01*
X227890Y453592D01*
X227862Y453759D01*
Y453926D01*
X227834Y454064D01*
Y454148D01*
Y454203D01*
Y454231D01*
X228112Y454481D01*
X228806Y454342D01*
D02*
G37*
G36*
X257068Y454620D02*
X257679Y454509D01*
X258234Y454342D01*
X258706Y454175D01*
X259067Y454009D01*
X259345Y453842D01*
X259456Y453787D01*
X259539Y453731D01*
X259567Y453703D01*
X259594D01*
X260067Y453315D01*
X260483Y452871D01*
X260816Y452426D01*
X261121Y451982D01*
X261343Y451566D01*
X261510Y451233D01*
X261566Y451094D01*
X261621Y451011D01*
X261649Y450955D01*
Y450927D01*
X261760Y450566D01*
X261871Y450150D01*
X262038Y449289D01*
X262176Y448401D01*
X262260Y447513D01*
X262287Y447096D01*
X262315Y446707D01*
Y446374D01*
X262343Y446069D01*
Y445819D01*
Y445653D01*
Y445514D01*
Y445486D01*
Y444847D01*
X262315Y444237D01*
X262287Y443681D01*
X262260Y443154D01*
X262204Y442682D01*
X262149Y442266D01*
X262093Y441877D01*
X262038Y441516D01*
X262010Y441211D01*
X261954Y440961D01*
X261899Y440739D01*
X261843Y440544D01*
X261815Y440405D01*
X261788Y440322D01*
X261760Y440267D01*
Y440239D01*
X261510Y439656D01*
X261205Y439156D01*
X260899Y438740D01*
X260594Y438379D01*
X260316Y438101D01*
X260094Y437907D01*
X259955Y437768D01*
X259900Y437740D01*
X259400Y437463D01*
X258900Y437241D01*
X258401Y437102D01*
X257929Y436991D01*
X257512Y436935D01*
X257179Y436907D01*
X257068Y436880D01*
X256902D01*
X256263Y436907D01*
X255652Y437019D01*
X255125Y437157D01*
X254681Y437352D01*
X254320Y437518D01*
X254042Y437657D01*
X253876Y437768D01*
X253848Y437796D01*
X253820D01*
X253348Y438185D01*
X252959Y438629D01*
X252598Y439101D01*
X252321Y439573D01*
X252099Y439989D01*
X251988Y440183D01*
X251932Y440350D01*
X251877Y440461D01*
X251821Y440572D01*
X251793Y440628D01*
Y440655D01*
X251654Y441044D01*
X251544Y441460D01*
X251349Y442349D01*
X251238Y443293D01*
X251127Y444181D01*
X251099Y444598D01*
X251071Y444958D01*
Y445319D01*
X251044Y445625D01*
Y445875D01*
Y446041D01*
Y446180D01*
Y446208D01*
Y446846D01*
X251071Y447429D01*
X251099Y447985D01*
X251127Y448484D01*
X251183Y448956D01*
X251238Y449373D01*
X251294Y449761D01*
X251349Y450094D01*
X251405Y450400D01*
X251460Y450650D01*
X251516Y450872D01*
X251571Y451066D01*
X251599Y451205D01*
X251627Y451288D01*
X251654Y451344D01*
Y451371D01*
X251904Y451954D01*
X252182Y452482D01*
X252487Y452898D01*
X252765Y453232D01*
X253043Y453509D01*
X253237Y453703D01*
X253376Y453815D01*
X253431Y453842D01*
X253903Y454120D01*
X254375Y454314D01*
X254875Y454453D01*
X255347Y454536D01*
X255763Y454620D01*
X255958D01*
X256096Y454647D01*
X256402D01*
X257068Y454620D01*
D02*
G37*
G36*
X244436D02*
X245047Y454509D01*
X245602Y454342D01*
X246074Y454175D01*
X246435Y454009D01*
X246713Y453842D01*
X246824Y453787D01*
X246907Y453731D01*
X246935Y453703D01*
X246963D01*
X247435Y453315D01*
X247851Y452871D01*
X248184Y452426D01*
X248490Y451982D01*
X248712Y451566D01*
X248878Y451233D01*
X248934Y451094D01*
X248989Y451011D01*
X249017Y450955D01*
Y450927D01*
X249128Y450566D01*
X249239Y450150D01*
X249406Y449289D01*
X249545Y448401D01*
X249628Y447513D01*
X249656Y447096D01*
X249683Y446707D01*
Y446374D01*
X249711Y446069D01*
Y445819D01*
Y445653D01*
Y445514D01*
Y445486D01*
Y444847D01*
X249683Y444237D01*
X249656Y443681D01*
X249628Y443154D01*
X249572Y442682D01*
X249517Y442266D01*
X249461Y441877D01*
X249406Y441516D01*
X249378Y441211D01*
X249322Y440961D01*
X249267Y440739D01*
X249211Y440544D01*
X249184Y440405D01*
X249156Y440322D01*
X249128Y440267D01*
Y440239D01*
X248878Y439656D01*
X248573Y439156D01*
X248267Y438740D01*
X247962Y438379D01*
X247684Y438101D01*
X247462Y437907D01*
X247324Y437768D01*
X247268Y437740D01*
X246768Y437463D01*
X246269Y437241D01*
X245769Y437102D01*
X245297Y436991D01*
X244881Y436935D01*
X244547Y436907D01*
X244436Y436880D01*
X244270D01*
X243631Y436907D01*
X243020Y437019D01*
X242493Y437157D01*
X242049Y437352D01*
X241688Y437518D01*
X241410Y437657D01*
X241244Y437768D01*
X241216Y437796D01*
X241188D01*
X240716Y438185D01*
X240327Y438629D01*
X239967Y439101D01*
X239689Y439573D01*
X239467Y439989D01*
X239356Y440183D01*
X239300Y440350D01*
X239245Y440461D01*
X239189Y440572D01*
X239161Y440628D01*
Y440655D01*
X239023Y441044D01*
X238912Y441460D01*
X238717Y442349D01*
X238606Y443293D01*
X238495Y444181D01*
X238468Y444598D01*
X238440Y444958D01*
Y445319D01*
X238412Y445625D01*
Y445875D01*
Y446041D01*
Y446180D01*
Y446208D01*
Y446846D01*
X238440Y447429D01*
X238468Y447985D01*
X238495Y448484D01*
X238551Y448956D01*
X238606Y449373D01*
X238662Y449761D01*
X238717Y450094D01*
X238773Y450400D01*
X238828Y450650D01*
X238884Y450872D01*
X238939Y451066D01*
X238967Y451205D01*
X238995Y451288D01*
X239023Y451344D01*
Y451371D01*
X239273Y451954D01*
X239550Y452482D01*
X239856Y452898D01*
X240133Y453232D01*
X240411Y453509D01*
X240605Y453703D01*
X240744Y453815D01*
X240800Y453842D01*
X241271Y454120D01*
X241743Y454314D01*
X242243Y454453D01*
X242715Y454536D01*
X243132Y454620D01*
X243326D01*
X243465Y454647D01*
X243770D01*
X244436Y454620D01*
D02*
G37*
%LPC*%
G36*
X251516Y475486D02*
X251349D01*
X251016Y475458D01*
X250711Y475375D01*
X250433Y475264D01*
X250211Y475125D01*
X250044Y474986D01*
X249933Y474875D01*
X249850Y474792D01*
X249822Y474764D01*
X249628Y474459D01*
X249489Y474125D01*
X249406Y473764D01*
X249322Y473404D01*
X249295Y473070D01*
X249267Y472793D01*
Y472682D01*
Y472598D01*
Y472571D01*
Y472543D01*
X249295Y472043D01*
X249350Y471627D01*
X249433Y471266D01*
X249517Y470961D01*
X249628Y470738D01*
X249711Y470600D01*
X249767Y470489D01*
X249794Y470461D01*
X250016Y470239D01*
X250239Y470100D01*
X250488Y469989D01*
X250738Y469906D01*
X250961Y469850D01*
X251127Y469822D01*
X251294D01*
X251654Y469850D01*
X251960Y469933D01*
X252237Y470072D01*
X252460Y470211D01*
X252654Y470322D01*
X252765Y470461D01*
X252848Y470544D01*
X252876Y470572D01*
X253070Y470905D01*
X253209Y471294D01*
X253293Y471710D01*
X253348Y472154D01*
X253403Y472543D01*
X253431Y472848D01*
Y472987D01*
Y473070D01*
Y473126D01*
Y473154D01*
X253403Y473542D01*
X253348Y473903D01*
X253265Y474181D01*
X253154Y474431D01*
X253043Y474625D01*
X252959Y474764D01*
X252904Y474847D01*
X252876Y474875D01*
X252654Y475069D01*
X252404Y475236D01*
X252154Y475347D01*
X251904Y475402D01*
X251682Y475458D01*
X251516Y475486D01*
D02*
G37*
G36*
X253098Y464409D02*
X249822D01*
X249545Y464381D01*
X249073D01*
X248878Y464353D01*
X248712D01*
X248462Y464325D01*
X248295D01*
X248212Y464298D01*
X248184D01*
X247879Y464187D01*
X247629Y464020D01*
X247490Y463881D01*
X247435Y463853D01*
Y463826D01*
X247296Y463604D01*
X247213Y463381D01*
X247101Y462937D01*
X247074Y462743D01*
X247046Y462604D01*
Y462493D01*
Y462465D01*
X247074Y462132D01*
X247129Y461855D01*
X247185Y461577D01*
X247268Y461355D01*
X247379Y461161D01*
X247435Y460994D01*
X247490Y460911D01*
X247518Y460883D01*
X247712Y460633D01*
X247934Y460411D01*
X248157Y460217D01*
X248379Y460050D01*
X248601Y459911D01*
X248767Y459828D01*
X248878Y459772D01*
X248906Y459745D01*
X249267Y459606D01*
X249628Y459495D01*
X249989Y459439D01*
X250350Y459384D01*
X250655Y459356D01*
X250877Y459328D01*
X251099D01*
X251738Y459356D01*
X252293Y459439D01*
X252765Y459578D01*
X253154Y459717D01*
X253459Y459828D01*
X253681Y459967D01*
X253792Y460050D01*
X253848Y460078D01*
X254153Y460355D01*
X254375Y460689D01*
X254542Y460994D01*
X254653Y461299D01*
X254708Y461577D01*
X254736Y461799D01*
X254764Y461938D01*
Y461993D01*
X254736Y462243D01*
X254708Y462465D01*
X254653Y462660D01*
X254597Y462826D01*
X254542Y462965D01*
X254514Y463076D01*
X254459Y463132D01*
Y463159D01*
X254320Y463354D01*
X254125Y463576D01*
X253903Y463770D01*
X253653Y463965D01*
X253459Y464159D01*
X253265Y464298D01*
X253154Y464381D01*
X253098Y464409D01*
D02*
G37*
G36*
X220949Y470794D02*
X220922D01*
Y467768D01*
X221310Y467407D01*
X221671Y467129D01*
X222032Y466963D01*
X222338Y466824D01*
X222588Y466741D01*
X222782Y466713D01*
X222893Y466685D01*
X222948D01*
X223198Y466713D01*
X223393Y466741D01*
X223587Y466824D01*
X223726Y466907D01*
X223865Y466963D01*
X223948Y467046D01*
X224003Y467074D01*
X224031Y467102D01*
X224170Y467268D01*
X224281Y467490D01*
X224336Y467685D01*
X224392Y467879D01*
X224420Y468046D01*
X224448Y468184D01*
Y468268D01*
Y468295D01*
X224420Y468629D01*
X224336Y468906D01*
X224253Y469156D01*
X224114Y469378D01*
X224003Y469545D01*
X223920Y469656D01*
X223837Y469739D01*
X223809Y469767D01*
X223670Y469878D01*
X223504Y469961D01*
X223087Y470155D01*
X222615Y470350D01*
X222115Y470489D01*
X221671Y470627D01*
X221449Y470655D01*
X221283Y470711D01*
X221144Y470738D01*
X221005Y470766D01*
X220949Y470794D01*
D02*
G37*
G36*
X183776D02*
X183748D01*
Y467768D01*
X184137Y467407D01*
X184498Y467129D01*
X184859Y466963D01*
X185164Y466824D01*
X185414Y466741D01*
X185608Y466713D01*
X185719Y466685D01*
X185775D01*
X186025Y466713D01*
X186219Y466741D01*
X186413Y466824D01*
X186552Y466907D01*
X186691Y466963D01*
X186774Y467046D01*
X186830Y467074D01*
X186857Y467102D01*
X186996Y467268D01*
X187107Y467490D01*
X187163Y467685D01*
X187218Y467879D01*
X187246Y468046D01*
X187274Y468184D01*
Y468268D01*
Y468295D01*
X187246Y468629D01*
X187163Y468906D01*
X187080Y469156D01*
X186941Y469378D01*
X186830Y469545D01*
X186747Y469656D01*
X186663Y469739D01*
X186635Y469767D01*
X186497Y469878D01*
X186330Y469961D01*
X185914Y470155D01*
X185442Y470350D01*
X184942Y470489D01*
X184498Y470627D01*
X184276Y470655D01*
X184109Y470711D01*
X183970Y470738D01*
X183832Y470766D01*
X183776Y470794D01*
D02*
G37*
G36*
X127446Y475375D02*
X127335D01*
X127002Y475347D01*
X126697Y475264D01*
X126447Y475153D01*
X126225Y475042D01*
X126058Y474903D01*
X125947Y474792D01*
X125864Y474708D01*
X125836Y474681D01*
X125642Y474375D01*
X125503Y474042D01*
X125420Y473681D01*
X125337Y473320D01*
X125309Y472987D01*
X125281Y472710D01*
Y472598D01*
Y472515D01*
Y472487D01*
Y472460D01*
Y471904D01*
X125670Y471877D01*
X126058Y471849D01*
X126419Y471821D01*
X126725D01*
X126974Y471793D01*
X127335D01*
X128140Y471821D01*
X128529D01*
X128834Y471849D01*
X129140Y471877D01*
X129334D01*
X129473Y471904D01*
X129529D01*
X129473Y472460D01*
X129417Y472932D01*
X129362Y473320D01*
X129306Y473626D01*
X129279Y473848D01*
X129223Y474014D01*
X129195Y474098D01*
Y474125D01*
X128973Y474514D01*
X128751Y474792D01*
X128640Y474903D01*
X128557Y474986D01*
X128501Y475014D01*
X128474Y475042D01*
X128279Y475153D01*
X128085Y475236D01*
X127724Y475347D01*
X127557D01*
X127446Y475375D01*
D02*
G37*
G36*
X206347Y445764D02*
X206152D01*
X205736Y445736D01*
X205403Y445625D01*
X205097Y445486D01*
X204847Y445319D01*
X204625Y445153D01*
X204487Y445014D01*
X204403Y444903D01*
X204375Y444875D01*
X204126Y444459D01*
X203931Y443959D01*
X203820Y443432D01*
X203709Y442904D01*
X203654Y442432D01*
Y442238D01*
X203626Y442071D01*
Y441905D01*
Y441794D01*
Y441738D01*
Y441710D01*
X203654Y441072D01*
X203737Y440544D01*
X203820Y440072D01*
X203931Y439711D01*
X204070Y439406D01*
X204153Y439212D01*
X204237Y439073D01*
X204264Y439045D01*
X204514Y438768D01*
X204792Y438573D01*
X205070Y438407D01*
X205319Y438323D01*
X205541Y438268D01*
X205736Y438240D01*
X205847Y438212D01*
X205902D01*
X206319Y438268D01*
X206680Y438379D01*
X206985Y438545D01*
X207263Y438740D01*
X207485Y438934D01*
X207624Y439101D01*
X207735Y439212D01*
X207763Y439267D01*
X207873Y439489D01*
X207985Y439739D01*
X208151Y440267D01*
X208290Y440877D01*
X208373Y441460D01*
X208429Y442016D01*
Y442266D01*
X208456Y442460D01*
Y442626D01*
Y442765D01*
Y442849D01*
Y442876D01*
X208429Y443404D01*
X208373Y443848D01*
X208262Y444237D01*
X208151Y444542D01*
X208068Y444764D01*
X207957Y444931D01*
X207901Y445042D01*
X207873Y445070D01*
X207624Y445292D01*
X207346Y445458D01*
X207068Y445597D01*
X206791Y445680D01*
X206541Y445736D01*
X206347Y445764D01*
D02*
G37*
G36*
X231138Y451982D02*
X231333Y443598D01*
X233748Y443543D01*
X234803D01*
X235164Y443570D01*
X235913D01*
X235552Y444375D01*
X235136Y445181D01*
X234747Y445958D01*
X234359Y446707D01*
X234164Y447041D01*
X233998Y447346D01*
X233859Y447624D01*
X233720Y447846D01*
X233609Y448040D01*
X233526Y448179D01*
X233498Y448262D01*
X233470Y448290D01*
X233193Y448762D01*
X232943Y449206D01*
X232693Y449622D01*
X232471Y449983D01*
X232249Y450317D01*
X232054Y450622D01*
X231888Y450900D01*
X231721Y451149D01*
X231582Y451344D01*
X231471Y451510D01*
X231360Y451677D01*
X231277Y451788D01*
X231166Y451927D01*
X231138Y451982D01*
D02*
G37*
G36*
X256874Y453315D02*
X256818D01*
X256541Y453287D01*
X256319Y453232D01*
X256096Y453148D01*
X255874Y453037D01*
X255541Y452732D01*
X255264Y452426D01*
X255069Y452093D01*
X254930Y451788D01*
X254875Y451677D01*
X254847Y451594D01*
X254819Y451538D01*
Y451510D01*
X254681Y451066D01*
X254569Y450539D01*
X254486Y450011D01*
X254403Y449428D01*
X254264Y448290D01*
X254181Y447124D01*
X254153Y446596D01*
X254125Y446097D01*
Y445653D01*
X254098Y445264D01*
Y444931D01*
Y444681D01*
Y444542D01*
Y444487D01*
Y443792D01*
X254125Y443154D01*
X254153Y442571D01*
X254209Y442043D01*
X254264Y441572D01*
X254347Y441155D01*
X254403Y440766D01*
X254459Y440433D01*
X254542Y440156D01*
X254597Y439934D01*
X254681Y439711D01*
X254736Y439573D01*
X254764Y439434D01*
X254819Y439351D01*
X254847Y439323D01*
Y439295D01*
X255097Y438934D01*
X255375Y438656D01*
X255652Y438490D01*
X255930Y438351D01*
X256208Y438268D01*
X256402Y438240D01*
X256541Y438212D01*
X256596D01*
X256874Y438240D01*
X257124Y438296D01*
X257346Y438379D01*
X257540Y438462D01*
X257679Y438545D01*
X257818Y438629D01*
X257873Y438684D01*
X257901Y438712D01*
X258040Y438851D01*
X258151Y439017D01*
X258345Y439406D01*
X258540Y439822D01*
X258678Y440267D01*
X258817Y440655D01*
X258900Y440988D01*
X258928Y441127D01*
Y441211D01*
X258956Y441266D01*
Y441294D01*
X259011Y441683D01*
X259067Y442099D01*
X259123Y442543D01*
X259150Y442987D01*
X259206Y443959D01*
X259234Y444903D01*
X259261Y445347D01*
Y445764D01*
X259289Y446124D01*
Y446458D01*
Y446735D01*
Y446930D01*
Y447041D01*
Y447096D01*
Y447790D01*
X259261Y448429D01*
X259234Y448984D01*
X259178Y449511D01*
X259150Y449983D01*
X259095Y450372D01*
X259039Y450733D01*
X258956Y451066D01*
X258900Y451316D01*
X258845Y451538D01*
X258789Y451732D01*
X258762Y451871D01*
X258706Y451982D01*
X258678Y452066D01*
X258651Y452121D01*
X258512Y452343D01*
X258373Y452510D01*
X258095Y452815D01*
X257790Y453037D01*
X257485Y453176D01*
X257235Y453259D01*
X257013Y453287D01*
X256874Y453315D01*
D02*
G37*
G36*
X244242D02*
X244186D01*
X243909Y453287D01*
X243687Y453232D01*
X243465Y453148D01*
X243243Y453037D01*
X242909Y452732D01*
X242632Y452426D01*
X242437Y452093D01*
X242299Y451788D01*
X242243Y451677D01*
X242215Y451594D01*
X242188Y451538D01*
Y451510D01*
X242049Y451066D01*
X241938Y450539D01*
X241854Y450011D01*
X241771Y449428D01*
X241632Y448290D01*
X241549Y447124D01*
X241521Y446596D01*
X241493Y446097D01*
Y445653D01*
X241466Y445264D01*
Y444931D01*
Y444681D01*
Y444542D01*
Y444487D01*
Y443792D01*
X241493Y443154D01*
X241521Y442571D01*
X241577Y442043D01*
X241632Y441572D01*
X241716Y441155D01*
X241771Y440766D01*
X241827Y440433D01*
X241910Y440156D01*
X241966Y439934D01*
X242049Y439711D01*
X242104Y439573D01*
X242132Y439434D01*
X242188Y439351D01*
X242215Y439323D01*
Y439295D01*
X242465Y438934D01*
X242743Y438656D01*
X243020Y438490D01*
X243298Y438351D01*
X243576Y438268D01*
X243770Y438240D01*
X243909Y438212D01*
X243964D01*
X244242Y438240D01*
X244492Y438296D01*
X244714Y438379D01*
X244908Y438462D01*
X245047Y438545D01*
X245186Y438629D01*
X245241Y438684D01*
X245269Y438712D01*
X245408Y438851D01*
X245519Y439017D01*
X245713Y439406D01*
X245908Y439822D01*
X246047Y440267D01*
X246185Y440655D01*
X246269Y440988D01*
X246296Y441127D01*
Y441211D01*
X246324Y441266D01*
Y441294D01*
X246380Y441683D01*
X246435Y442099D01*
X246491Y442543D01*
X246518Y442987D01*
X246574Y443959D01*
X246602Y444903D01*
X246630Y445347D01*
Y445764D01*
X246657Y446124D01*
Y446458D01*
Y446735D01*
Y446930D01*
Y447041D01*
Y447096D01*
Y447790D01*
X246630Y448429D01*
X246602Y448984D01*
X246546Y449511D01*
X246518Y449983D01*
X246463Y450372D01*
X246408Y450733D01*
X246324Y451066D01*
X246269Y451316D01*
X246213Y451538D01*
X246158Y451732D01*
X246130Y451871D01*
X246074Y451982D01*
X246047Y452066D01*
X246019Y452121D01*
X245880Y452343D01*
X245741Y452510D01*
X245464Y452815D01*
X245158Y453037D01*
X244853Y453176D01*
X244603Y453259D01*
X244381Y453287D01*
X244242Y453315D01*
D02*
G37*
%LPD*%
M02*
