M48
;Layer_Color=9474304
;FILE_FORMAT=4:4
METRIC,LZ
;TYPE=PLATED
T1F00S00C0.7500
T2F00S00C0.8500
T3F00S00C0.9000
T4F00S00C0.9300
T5F00S00C1.0000
T6F00S00C1.3000
T7F00S00C3.5000
%
T01
X0026Y00105
Y00155
X00255Y0023
X00305
X00325Y001275
Y001025
X00315Y0005
X00365
X00425Y00085
Y00135
T02
X00015Y002119
X00055
X00095
X0013
X0017
X0021
Y002881
X0017
X0013
X00095
X00055
X00015
T03
X001169Y000969
X001423
X001677
X001931
Y001731
X001677
X001423
X001169
T04
X0027845Y00335
Y0036
Y00385
T05
X0003355Y001245
X0005895
X0013Y000445
X0015
X00235
X00255
X0049Y00075
Y00095
X00425Y00198
Y00275
X0042Y00358
Y00435
T06
X001108Y003642
Y00415
X0006
T07
X00025Y00025
X00525
Y00475
X00025
M30
