G04*
G04 #@! TF.GenerationSoftware,Altium Limited,Altium Designer,23.2.1 (34)*
G04*
G04 Layer_Color=16711935*
%FSLAX44Y44*%
%MOMM*%
G71*
G04*
G04 #@! TF.SameCoordinates,58D706FB-8AEF-4135-8DC0-6D3B37A59AC3*
G04*
G04*
G04 #@! TF.FilePolarity,Positive*
G04*
G01*
G75*
%ADD10C,0.1270*%
%ADD11C,0.2000*%
%ADD12C,0.1000*%
%ADD15C,0.5000*%
D10*
X350000Y115000D02*
G03*
X350000Y115000I-25000J0D01*
G01*
X266521Y340750D02*
G03*
X266521Y379250I13479J19250D01*
G01*
X266500Y340765D02*
Y379235D01*
D11*
X326000Y147500D02*
G03*
X326000Y147500I-1000J0D01*
G01*
X279450Y402000D02*
G03*
X279450Y402000I-1000J0D01*
G01*
X78000Y92750D02*
Y156250D01*
X18310D02*
X78000D01*
X18310Y92750D02*
Y156250D01*
Y92750D02*
X78000D01*
D12*
X118250Y111000D02*
G03*
X118250Y111000I-5000J0D01*
G01*
X473000Y55500D02*
Y114500D01*
Y55500D02*
X518000D01*
X473000Y114500D02*
X518000D01*
Y55500D02*
Y114500D01*
X205750Y102000D02*
Y168000D01*
X104250Y102000D02*
Y168000D01*
X205750D01*
X104250Y102000D02*
X205750D01*
X110500Y27500D02*
X169500D01*
Y72500D01*
X110500Y27500D02*
Y72500D01*
X169500D01*
X215500Y27500D02*
X274500D01*
Y72500D01*
X215500Y27500D02*
Y72500D01*
X274500D01*
D15*
X0Y0D02*
Y500000D01*
X550000D01*
Y0D02*
Y500000D01*
X0Y0D02*
X550000D01*
M02*
