G04*
G04 #@! TF.GenerationSoftware,Altium Limited,Altium Designer,23.2.1 (34)*
G04*
G04 Layer_Color=16711935*
%FSLAX44Y44*%
%MOMM*%
G71*
G04*
G04 #@! TF.SameCoordinates,58D706FB-8AEF-4135-8DC0-6D3B37A59AC3*
G04*
G04*
G04 #@! TF.FilePolarity,Negative*
G04*
G01*
G75*
%ADD17C,4.6500*%
%ADD18R,1.2500X1.2500*%
%ADD19C,1.2500*%
%ADD20C,1.7500*%
%ADD21R,1.6500X1.6500*%
%ADD22C,1.6500*%
%ADD23C,1.3500*%
%ADD24C,2.1000*%
%ADD25R,1.5500X1.5500*%
%ADD26C,1.5500*%
%ADD27R,1.6500X1.6500*%
D17*
X25000Y25000D02*
D03*
X525000Y475000D02*
D03*
X25000D02*
D03*
X525000Y25000D02*
D03*
D18*
X325000Y127500D02*
D03*
D19*
Y102500D02*
D03*
D20*
X58950Y124500D02*
D03*
X33550D02*
D03*
X420000Y435000D02*
D03*
Y358000D02*
D03*
X425000Y275000D02*
D03*
Y198000D02*
D03*
D21*
X490000Y75000D02*
D03*
X116900Y96900D02*
D03*
D22*
X490000Y95000D02*
D03*
X193100Y173100D02*
D03*
X167700D02*
D03*
X142300D02*
D03*
X116900D02*
D03*
X193100Y96900D02*
D03*
X167700D02*
D03*
X142300D02*
D03*
X130000Y44500D02*
D03*
X235000D02*
D03*
D23*
X425000Y85000D02*
D03*
Y135000D02*
D03*
X260000Y155000D02*
D03*
Y105000D02*
D03*
X365000Y50000D02*
D03*
X315000D02*
D03*
X255000Y230000D02*
D03*
X305000D02*
D03*
D24*
X60000Y415000D02*
D03*
X110800D02*
D03*
Y364200D02*
D03*
D25*
X278450Y385000D02*
D03*
D26*
Y360000D02*
D03*
Y335000D02*
D03*
X15000Y288100D02*
D03*
Y211900D02*
D03*
X95000Y288100D02*
D03*
Y211900D02*
D03*
X55000D02*
D03*
Y288100D02*
D03*
X130000Y211900D02*
D03*
Y288100D02*
D03*
X170000Y211900D02*
D03*
Y288100D02*
D03*
X210000D02*
D03*
Y211900D02*
D03*
D27*
X150000Y44500D02*
D03*
X255000D02*
D03*
M02*
