G04*
G04 #@! TF.GenerationSoftware,Altium Limited,Altium Designer,23.2.1 (34)*
G04*
G04 Layer_Physical_Order=2*
G04 Layer_Color=16711680*
%FSLAX44Y44*%
%MOMM*%
G71*
G04*
G04 #@! TF.SameCoordinates,58D706FB-8AEF-4135-8DC0-6D3B37A59AC3*
G04*
G04*
G04 #@! TF.FilePolarity,Positive*
G04*
G01*
G75*
%ADD28C,0.3810*%
%ADD30R,1.1000X1.1000*%
%ADD31C,1.1000*%
%ADD32C,1.6000*%
%ADD33R,1.5000X1.5000*%
%ADD34C,1.5000*%
%ADD35C,1.2000*%
%ADD36C,1.9500*%
%ADD37R,1.4000X1.4000*%
%ADD38C,1.4000*%
%ADD39R,1.5000X1.5000*%
G36*
X509835Y488827D02*
X509077Y488068D01*
X506833Y484710D01*
X505288Y480980D01*
X504500Y477019D01*
Y472981D01*
X505288Y469020D01*
X506833Y465290D01*
X509077Y461932D01*
X511932Y459077D01*
X515290Y456833D01*
X519020Y455288D01*
X522981Y454500D01*
X527019D01*
X530980Y455288D01*
X534710Y456833D01*
X538068Y459077D01*
X538827Y459835D01*
X540000Y459349D01*
Y40651D01*
X538827Y40165D01*
X538068Y40923D01*
X534710Y43167D01*
X530980Y44712D01*
X527019Y45500D01*
X522981D01*
X519020Y44712D01*
X515290Y43167D01*
X511932Y40923D01*
X509077Y38068D01*
X506833Y34710D01*
X505288Y30980D01*
X504500Y27019D01*
Y22981D01*
X505288Y19020D01*
X506833Y15290D01*
X509077Y11932D01*
X509835Y11173D01*
X509349Y10000D01*
X40651D01*
X40165Y11173D01*
X40923Y11932D01*
X43167Y15290D01*
X44712Y19020D01*
X45500Y22981D01*
Y27019D01*
X44712Y30980D01*
X43167Y34710D01*
X40923Y38068D01*
X38068Y40923D01*
X34710Y43167D01*
X30980Y44712D01*
X27019Y45500D01*
X22981D01*
X19020Y44712D01*
X15290Y43167D01*
X11932Y40923D01*
X11173Y40165D01*
X10000Y40651D01*
Y278170D01*
X10818Y278642D01*
X11270Y278747D01*
X13684Y278100D01*
X16316D01*
X18860Y278782D01*
X21140Y280098D01*
X23002Y281960D01*
X24318Y284240D01*
X25000Y286783D01*
Y289417D01*
X24318Y291960D01*
X23002Y294240D01*
X21140Y296102D01*
X18860Y297418D01*
X16316Y298100D01*
X13684D01*
X11270Y297453D01*
X10818Y297558D01*
X10000Y298030D01*
Y459349D01*
X11173Y459835D01*
X11932Y459077D01*
X15290Y456833D01*
X19020Y455288D01*
X22981Y454500D01*
X27019D01*
X30980Y455288D01*
X34710Y456833D01*
X38068Y459077D01*
X40923Y461932D01*
X43167Y465290D01*
X44712Y469020D01*
X45500Y472981D01*
Y477019D01*
X44712Y480980D01*
X43167Y484710D01*
X40923Y488068D01*
X40165Y488827D01*
X40651Y490000D01*
X509349D01*
X509835Y488827D01*
D02*
G37*
%LPC*%
G36*
X421448Y446000D02*
X418552D01*
X415754Y445250D01*
X413246Y443802D01*
X411198Y441754D01*
X409750Y439246D01*
X409000Y436448D01*
Y433552D01*
X409750Y430754D01*
X411198Y428246D01*
X413246Y426198D01*
X415754Y424750D01*
X418552Y424000D01*
X421448D01*
X424246Y424750D01*
X426754Y426198D01*
X428802Y428246D01*
X430250Y430754D01*
X431000Y433552D01*
Y436448D01*
X430250Y439246D01*
X428802Y441754D01*
X426754Y443802D01*
X424246Y445250D01*
X421448Y446000D01*
D02*
G37*
G36*
X171317Y298100D02*
X168683D01*
X166140Y297418D01*
X163860Y296102D01*
X161998Y294240D01*
X160681Y291960D01*
X160000Y289417D01*
Y286783D01*
X160681Y284240D01*
X161998Y281960D01*
X163860Y280098D01*
X166140Y278782D01*
X168683Y278100D01*
X171317D01*
X173860Y278782D01*
X176140Y280098D01*
X178002Y281960D01*
X179319Y284240D01*
X180000Y286783D01*
Y289417D01*
X179319Y291960D01*
X178002Y294240D01*
X176140Y296102D01*
X173860Y297418D01*
X171317Y298100D01*
D02*
G37*
G36*
X426448Y286000D02*
X423552D01*
X420754Y285250D01*
X418246Y283802D01*
X416198Y281754D01*
X414750Y279246D01*
X414000Y276448D01*
Y273552D01*
X414750Y270754D01*
X416198Y268246D01*
X418246Y266198D01*
X420754Y264750D01*
X423552Y264000D01*
X426448D01*
X429246Y264750D01*
X431754Y266198D01*
X433802Y268246D01*
X435250Y270754D01*
X436000Y273552D01*
Y276448D01*
X435250Y279246D01*
X433802Y281754D01*
X431754Y283802D01*
X429246Y285250D01*
X426448Y286000D01*
D02*
G37*
G36*
X306185Y239000D02*
X303815D01*
X301526Y238387D01*
X299474Y237202D01*
X297798Y235526D01*
X296613Y233474D01*
X296000Y231185D01*
Y228815D01*
X296613Y226526D01*
X297798Y224474D01*
X299474Y222798D01*
X301526Y221613D01*
X303815Y221000D01*
X306185D01*
X308474Y221613D01*
X310526Y222798D01*
X312202Y224474D01*
X313387Y226526D01*
X314000Y228815D01*
Y231185D01*
X313387Y233474D01*
X312202Y235526D01*
X310526Y237202D01*
X308474Y238387D01*
X306185Y239000D01*
D02*
G37*
G36*
X256185D02*
X253815D01*
X251526Y238387D01*
X249474Y237202D01*
X247798Y235526D01*
X246613Y233474D01*
X246000Y231185D01*
Y228815D01*
X246613Y226526D01*
X247798Y224474D01*
X249474Y222798D01*
X251526Y221613D01*
X253815Y221000D01*
X256185D01*
X258474Y221613D01*
X260526Y222798D01*
X262202Y224474D01*
X263387Y226526D01*
X264000Y228815D01*
Y231185D01*
X263387Y233474D01*
X262202Y235526D01*
X260526Y237202D01*
X258474Y238387D01*
X256185Y239000D01*
D02*
G37*
G36*
X211317Y221900D02*
X208683D01*
X206140Y221218D01*
X203860Y219902D01*
X201998Y218040D01*
X200681Y215760D01*
X200000Y213216D01*
Y210583D01*
X200681Y208040D01*
X201998Y205760D01*
X203860Y203898D01*
X206140Y202582D01*
X208683Y201900D01*
X211317D01*
X213860Y202582D01*
X216140Y203898D01*
X218002Y205760D01*
X219319Y208040D01*
X220000Y210583D01*
Y213216D01*
X219319Y215760D01*
X218002Y218040D01*
X216140Y219902D01*
X213860Y221218D01*
X211317Y221900D01*
D02*
G37*
G36*
X426448Y209000D02*
X423552D01*
X420754Y208250D01*
X418246Y206802D01*
X416198Y204754D01*
X414750Y202246D01*
X414000Y199448D01*
Y196552D01*
X414750Y193754D01*
X416198Y191246D01*
X418246Y189198D01*
X420754Y187750D01*
X423552Y187000D01*
X426448D01*
X429246Y187750D01*
X431754Y189198D01*
X433802Y191246D01*
X435250Y193754D01*
X436000Y196552D01*
Y199448D01*
X435250Y202246D01*
X433802Y204754D01*
X431754Y206802D01*
X429246Y208250D01*
X426448Y209000D01*
D02*
G37*
G36*
X194482Y183600D02*
X191718D01*
X189047Y182884D01*
X186653Y181502D01*
X184698Y179547D01*
X183316Y177153D01*
X182600Y174482D01*
Y171718D01*
X183316Y169047D01*
X184698Y166653D01*
X186653Y164698D01*
X189047Y163316D01*
X191718Y162600D01*
X194482D01*
X197153Y163316D01*
X199547Y164698D01*
X201502Y166653D01*
X202884Y169047D01*
X203600Y171718D01*
Y174482D01*
X202884Y177153D01*
X201502Y179547D01*
X199547Y181502D01*
X197153Y182884D01*
X194482Y183600D01*
D02*
G37*
G36*
X169082D02*
X166318D01*
X163647Y182884D01*
X161253Y181502D01*
X159298Y179547D01*
X157916Y177153D01*
X157200Y174482D01*
Y171718D01*
X157916Y169047D01*
X159298Y166653D01*
X161253Y164698D01*
X163647Y163316D01*
X166318Y162600D01*
X169082D01*
X171753Y163316D01*
X174147Y164698D01*
X176102Y166653D01*
X177484Y169047D01*
X178200Y171718D01*
Y174482D01*
X177484Y177153D01*
X176102Y179547D01*
X174147Y181502D01*
X171753Y182884D01*
X169082Y183600D01*
D02*
G37*
G36*
X112479Y427750D02*
X109121D01*
X105879Y426881D01*
X102971Y425202D01*
X100597Y422829D01*
X98919Y419921D01*
X98050Y416679D01*
Y413321D01*
X96852Y412884D01*
X93569Y412231D01*
X93291Y412116D01*
X92996Y412057D01*
X89356Y410550D01*
X89105Y410382D01*
X88827Y410267D01*
X85551Y408078D01*
X85338Y407865D01*
X85088Y407698D01*
X82302Y404912D01*
X82135Y404662D01*
X81922Y404449D01*
X79733Y401173D01*
X79618Y400895D01*
X79450Y400644D01*
X77943Y397004D01*
X77884Y396709D01*
X77769Y396431D01*
X77000Y392566D01*
Y392265D01*
X76941Y391970D01*
Y390000D01*
Y330075D01*
X76908Y329395D01*
X76628Y327989D01*
X76109Y326735D01*
X75354Y325606D01*
X74394Y324646D01*
X73265Y323891D01*
X72011Y323372D01*
X70605Y323092D01*
X69925Y323059D01*
X49015D01*
X48720Y323000D01*
X48418D01*
X46486Y322616D01*
X46208Y322500D01*
X45912Y322442D01*
X44093Y321688D01*
X43842Y321520D01*
X43564Y321405D01*
X41926Y320311D01*
X41713Y320098D01*
X41462Y319930D01*
X40070Y318538D01*
X39902Y318287D01*
X39689Y318074D01*
X38595Y316436D01*
X38479Y316158D01*
X38312Y315907D01*
X37558Y314087D01*
X37500Y313792D01*
X37384Y313514D01*
X37000Y311582D01*
Y311280D01*
X36941Y310985D01*
Y310000D01*
Y136023D01*
X35934Y135249D01*
X34998Y135500D01*
X32102D01*
X29304Y134750D01*
X26796Y133302D01*
X24748Y131254D01*
X23300Y128746D01*
X22550Y125948D01*
Y123052D01*
X23300Y120254D01*
X24748Y117746D01*
X26796Y115698D01*
X29304Y114250D01*
X32102Y113500D01*
X34998D01*
X37796Y114250D01*
X38595Y113564D01*
X39689Y111926D01*
X39902Y111713D01*
X40070Y111462D01*
X41462Y110070D01*
X41713Y109902D01*
X41926Y109689D01*
X43564Y108595D01*
X43842Y108479D01*
X44093Y108312D01*
X45913Y107558D01*
X46208Y107500D01*
X46486Y107384D01*
X48418Y107000D01*
X48720D01*
X49015Y106941D01*
X136152D01*
X136492Y105671D01*
X135853Y105302D01*
X133898Y103347D01*
X132516Y100953D01*
X131800Y98282D01*
Y95518D01*
X132516Y92847D01*
X133898Y90453D01*
X135853Y88498D01*
X138247Y87116D01*
X140918Y86400D01*
X143682D01*
X146353Y87116D01*
X148747Y88498D01*
X150702Y90453D01*
X152084Y92847D01*
X152800Y95518D01*
Y98282D01*
X152084Y100953D01*
X150702Y103347D01*
X148747Y105302D01*
X148108Y105671D01*
X148448Y106941D01*
X161552D01*
X161892Y105671D01*
X161253Y105302D01*
X159298Y103347D01*
X157916Y100953D01*
X157200Y98282D01*
Y95518D01*
X157916Y92847D01*
X159298Y90453D01*
X161253Y88498D01*
X163647Y87116D01*
X166318Y86400D01*
X169082D01*
X171753Y87116D01*
X174147Y88498D01*
X176102Y90453D01*
X177484Y92847D01*
X178200Y95518D01*
Y98282D01*
X177484Y100953D01*
X176102Y103347D01*
X174147Y105302D01*
X173508Y105671D01*
X173848Y106941D01*
X179925D01*
X180605Y106908D01*
X182011Y106628D01*
X183265Y106109D01*
X184394Y105354D01*
X185354Y104394D01*
X185511Y104160D01*
X184698Y103347D01*
X183316Y100953D01*
X182600Y98282D01*
Y95518D01*
X183316Y92847D01*
X184698Y90453D01*
X186653Y88498D01*
X186941Y88331D01*
Y60000D01*
Y58030D01*
X187000Y57735D01*
Y57433D01*
X187769Y53569D01*
X187884Y53291D01*
X187943Y52996D01*
X189450Y49356D01*
X189618Y49105D01*
X189733Y48827D01*
X191922Y45551D01*
X192135Y45338D01*
X192302Y45088D01*
X195088Y42302D01*
X195338Y42135D01*
X195551Y41922D01*
X198827Y39733D01*
X199105Y39618D01*
X199356Y39450D01*
X202996Y37943D01*
X203291Y37884D01*
X203570Y37769D01*
X207433Y37000D01*
X207735D01*
X208030Y36941D01*
X224080D01*
X224322Y36990D01*
X224570Y36981D01*
X224902Y37105D01*
X225250Y37174D01*
X225456Y37311D01*
X225688Y37398D01*
X226275Y37821D01*
X227387Y37264D01*
X228553Y36098D01*
X230947Y34716D01*
X233618Y34000D01*
X236382D01*
X239053Y34716D01*
X241447Y36098D01*
X242613Y37264D01*
X243358Y37637D01*
X244500Y36924D01*
Y34000D01*
X265500D01*
Y37583D01*
X266430Y37769D01*
X266709Y37884D01*
X267004Y37943D01*
X270644Y39450D01*
X270895Y39618D01*
X271173Y39733D01*
X274449Y41922D01*
X274662Y42135D01*
X274912Y42302D01*
X277698Y45088D01*
X277865Y45338D01*
X278078Y45551D01*
X280267Y48827D01*
X280382Y49105D01*
X280550Y49356D01*
X282057Y52996D01*
X282116Y53291D01*
X282231Y53569D01*
X283000Y57433D01*
Y57735D01*
X283059Y58030D01*
Y67102D01*
X283000Y67397D01*
Y67698D01*
X282024Y72606D01*
X281909Y72884D01*
X281850Y73179D01*
X279935Y77802D01*
X279768Y78052D01*
X279653Y78331D01*
X276873Y82491D01*
X276660Y82704D01*
X276492Y82954D01*
X272954Y86492D01*
X272704Y86660D01*
X272491Y86873D01*
X268331Y89652D01*
X268052Y89768D01*
X267802Y89935D01*
X263179Y91850D01*
X262884Y91909D01*
X262606Y92024D01*
X257698Y93000D01*
X257397D01*
X257102Y93059D01*
X250075D01*
X249395Y93092D01*
X247989Y93372D01*
X246735Y93891D01*
X245606Y94646D01*
X244646Y95606D01*
X243891Y96735D01*
X243372Y97989D01*
X243092Y99395D01*
X243059Y100075D01*
Y140985D01*
X243000Y141280D01*
Y141582D01*
X242616Y143514D01*
X242500Y143792D01*
X242442Y144087D01*
X241688Y145907D01*
X241520Y146158D01*
X241405Y146436D01*
X240311Y148074D01*
X240098Y148287D01*
X239930Y148538D01*
X238538Y149930D01*
X238287Y150098D01*
X238074Y150311D01*
X236436Y151405D01*
X236158Y151521D01*
X235907Y151688D01*
X234087Y152442D01*
X233792Y152500D01*
X233514Y152616D01*
X231582Y153000D01*
X231280D01*
X230985Y153059D01*
X140075D01*
X139395Y153092D01*
X137989Y153372D01*
X136735Y153891D01*
X135606Y154646D01*
X134646Y155606D01*
X133891Y156735D01*
X133372Y157989D01*
X133092Y159395D01*
X133059Y160075D01*
Y165696D01*
X134329Y166222D01*
X135853Y164698D01*
X138247Y163316D01*
X140918Y162600D01*
X143682D01*
X146353Y163316D01*
X148747Y164698D01*
X150702Y166653D01*
X152084Y169047D01*
X152800Y171718D01*
Y174482D01*
X152084Y177153D01*
X150702Y179547D01*
X148747Y181502D01*
X146353Y182884D01*
X143682Y183600D01*
X140918D01*
X138247Y182884D01*
X135853Y181502D01*
X134329Y179978D01*
X133059Y180504D01*
Y201900D01*
X132971Y202343D01*
X133860Y202582D01*
X136140Y203898D01*
X138002Y205760D01*
X139319Y208040D01*
X140000Y210583D01*
Y213216D01*
X139319Y215760D01*
X138002Y218040D01*
X136140Y219902D01*
X133860Y221218D01*
X132971Y221457D01*
X133059Y221900D01*
Y239925D01*
X133092Y240605D01*
X133372Y242011D01*
X133891Y243265D01*
X134646Y244394D01*
X135606Y245354D01*
X136735Y246109D01*
X137989Y246628D01*
X139395Y246908D01*
X140075Y246941D01*
X140985D01*
X141280Y247000D01*
X141582D01*
X143514Y247384D01*
X143792Y247500D01*
X144087Y247558D01*
X145907Y248312D01*
X146158Y248479D01*
X146436Y248595D01*
X148074Y249689D01*
X148287Y249902D01*
X148538Y250070D01*
X149930Y251462D01*
X150098Y251713D01*
X150311Y251926D01*
X151405Y253564D01*
X151521Y253842D01*
X151688Y254093D01*
X152442Y255913D01*
X152500Y256208D01*
X152616Y256486D01*
X153000Y258418D01*
Y258720D01*
X153059Y259015D01*
Y289925D01*
X153140Y291585D01*
X153802Y294914D01*
X155072Y297979D01*
X156916Y300738D01*
X159262Y303084D01*
X162021Y304928D01*
X165086Y306197D01*
X168415Y306860D01*
X170075Y306941D01*
X461970D01*
X462265Y307000D01*
X462567D01*
X466431Y307769D01*
X466709Y307884D01*
X467004Y307943D01*
X470644Y309450D01*
X470895Y309618D01*
X471173Y309733D01*
X474449Y311922D01*
X474662Y312135D01*
X474912Y312302D01*
X477698Y315088D01*
X477865Y315338D01*
X478078Y315551D01*
X480267Y318827D01*
X480382Y319105D01*
X480550Y319356D01*
X482057Y322996D01*
X482116Y323291D01*
X482231Y323569D01*
X483000Y327433D01*
Y327735D01*
X483059Y328030D01*
Y330000D01*
Y384600D01*
Y387102D01*
X483000Y387397D01*
Y387698D01*
X482024Y392606D01*
X481909Y392884D01*
X481850Y393180D01*
X479935Y397802D01*
X479768Y398052D01*
X479652Y398331D01*
X476873Y402491D01*
X476660Y402704D01*
X476492Y402954D01*
X472954Y406492D01*
X472704Y406660D01*
X472491Y406873D01*
X468331Y409652D01*
X468052Y409768D01*
X467802Y409935D01*
X463179Y411850D01*
X462884Y411909D01*
X462606Y412024D01*
X457698Y413000D01*
X457397D01*
X457102Y413059D01*
X123752D01*
X123550Y413321D01*
Y416679D01*
X122681Y419921D01*
X121003Y422829D01*
X118629Y425202D01*
X115721Y426881D01*
X112479Y427750D01*
D02*
G37*
G36*
X261185Y164000D02*
X258815D01*
X256526Y163387D01*
X254474Y162202D01*
X252798Y160526D01*
X251613Y158474D01*
X251000Y156185D01*
Y153815D01*
X251613Y151526D01*
X252798Y149474D01*
X254474Y147798D01*
X256526Y146613D01*
X258815Y146000D01*
X261185D01*
X263474Y146613D01*
X265526Y147798D01*
X267202Y149474D01*
X268387Y151526D01*
X269000Y153815D01*
Y156185D01*
X268387Y158474D01*
X267202Y160526D01*
X265526Y162202D01*
X263474Y163387D01*
X261185Y164000D01*
D02*
G37*
G36*
X426185Y144000D02*
X423815D01*
X421526Y143387D01*
X419474Y142202D01*
X417798Y140526D01*
X416613Y138474D01*
X416000Y136185D01*
Y133815D01*
X416613Y131526D01*
X417798Y129474D01*
X419474Y127798D01*
X421526Y126613D01*
X423815Y126000D01*
X426185D01*
X428474Y126613D01*
X430526Y127798D01*
X432202Y129474D01*
X433387Y131526D01*
X434000Y133815D01*
Y136185D01*
X433387Y138474D01*
X432202Y140526D01*
X430526Y142202D01*
X428474Y143387D01*
X426185Y144000D01*
D02*
G37*
G36*
X333500Y136000D02*
X316500D01*
Y119000D01*
X333500D01*
Y136000D01*
D02*
G37*
G36*
X326119Y111000D02*
X323881D01*
X321719Y110421D01*
X319781Y109302D01*
X318198Y107719D01*
X317079Y105781D01*
X316500Y103619D01*
Y101381D01*
X317079Y99219D01*
X318198Y97281D01*
X319781Y95698D01*
X321719Y94579D01*
X323881Y94000D01*
X326119D01*
X328281Y94579D01*
X330219Y95698D01*
X331802Y97281D01*
X332921Y99219D01*
X333500Y101381D01*
Y103619D01*
X332921Y105781D01*
X331802Y107719D01*
X330219Y109302D01*
X328281Y110421D01*
X326119Y111000D01*
D02*
G37*
G36*
X426185Y94000D02*
X423815D01*
X421526Y93387D01*
X419474Y92202D01*
X417798Y90526D01*
X416613Y88474D01*
X416000Y86185D01*
Y83815D01*
X416613Y81526D01*
X417798Y79474D01*
X419474Y77798D01*
X421526Y76613D01*
X423815Y76000D01*
X426185D01*
X428474Y76613D01*
X430526Y77798D01*
X432202Y79474D01*
X433387Y81526D01*
X434000Y83815D01*
Y86185D01*
X433387Y88474D01*
X432202Y90526D01*
X430526Y92202D01*
X428474Y93387D01*
X426185Y94000D01*
D02*
G37*
G36*
X491382Y105500D02*
X488618D01*
X485947Y104784D01*
X483553Y103402D01*
X481598Y101447D01*
X480216Y99053D01*
X479500Y96382D01*
Y93618D01*
X480216Y90947D01*
X481598Y88553D01*
X483381Y86770D01*
X483138Y85500D01*
X479500D01*
Y64500D01*
X500500D01*
Y85500D01*
X496862D01*
X496619Y86770D01*
X498402Y88553D01*
X499784Y90947D01*
X500500Y93618D01*
Y96382D01*
X499784Y99053D01*
X498402Y101447D01*
X496447Y103402D01*
X494053Y104784D01*
X491382Y105500D01*
D02*
G37*
G36*
X366185Y59000D02*
X363815D01*
X361526Y58387D01*
X359474Y57202D01*
X357798Y55526D01*
X356613Y53474D01*
X356000Y51185D01*
Y48815D01*
X356613Y46526D01*
X357798Y44474D01*
X359474Y42798D01*
X361526Y41613D01*
X363815Y41000D01*
X366185D01*
X368474Y41613D01*
X370526Y42798D01*
X372202Y44474D01*
X373387Y46526D01*
X374000Y48815D01*
Y51185D01*
X373387Y53474D01*
X372202Y55526D01*
X370526Y57202D01*
X368474Y58387D01*
X366185Y59000D01*
D02*
G37*
G36*
X160500Y55000D02*
X139500D01*
Y34000D01*
X160500D01*
Y55000D01*
D02*
G37*
%LPD*%
G36*
X462009Y409024D02*
X466631Y407109D01*
X470792Y404329D01*
X474329Y400792D01*
X477109Y396631D01*
X479024Y392009D01*
X480000Y387102D01*
Y384600D01*
Y330000D01*
Y328030D01*
X479231Y324166D01*
X477724Y320526D01*
X475535Y317251D01*
X472749Y314465D01*
X469473Y312276D01*
X465834Y310769D01*
X461970Y310000D01*
X170000D01*
X168040Y309904D01*
X164194Y309139D01*
X160572Y307638D01*
X157312Y305460D01*
X154540Y302688D01*
X152362Y299428D01*
X150861Y295806D01*
X150096Y291960D01*
X150000Y290000D01*
Y259015D01*
X149616Y257083D01*
X148862Y255263D01*
X147767Y253625D01*
X146375Y252232D01*
X144737Y251138D01*
X142917Y250384D01*
X140985Y250000D01*
X140000D01*
X139020Y249952D01*
X137097Y249569D01*
X135286Y248819D01*
X133656Y247730D01*
X132270Y246344D01*
X131181Y244714D01*
X130431Y242903D01*
X130048Y240980D01*
X130000Y240000D01*
Y221900D01*
X128684D01*
X126140Y221218D01*
X123860Y219902D01*
X121998Y218040D01*
X120681Y215760D01*
X120000Y213216D01*
Y210583D01*
X120681Y208040D01*
X121998Y205760D01*
X123860Y203898D01*
X126140Y202582D01*
X128684Y201900D01*
X130000D01*
Y160000D01*
X130048Y159020D01*
X130431Y157097D01*
X131181Y155286D01*
X132270Y153656D01*
X133656Y152270D01*
X135286Y151181D01*
X137097Y150431D01*
X139020Y150048D01*
X140000Y150000D01*
X230985D01*
X232917Y149616D01*
X234737Y148862D01*
X236375Y147767D01*
X237768Y146375D01*
X238862Y144737D01*
X239616Y142917D01*
X240000Y140985D01*
Y100000D01*
X240048Y99020D01*
X240431Y97097D01*
X241181Y95286D01*
X242270Y93656D01*
X243656Y92270D01*
X245286Y91181D01*
X247097Y90431D01*
X249020Y90048D01*
X250000Y90000D01*
X257102D01*
X262009Y89024D01*
X266631Y87109D01*
X270791Y84329D01*
X274329Y80792D01*
X277109Y76631D01*
X279024Y72009D01*
X280000Y67102D01*
Y58030D01*
X279231Y54166D01*
X277724Y50526D01*
X275535Y47251D01*
X272749Y44465D01*
X269473Y42276D01*
X265834Y40769D01*
X261970Y40000D01*
X245920D01*
X245005Y41270D01*
X245500Y43118D01*
Y45882D01*
X244784Y48553D01*
X243402Y50947D01*
X241447Y52902D01*
X239053Y54284D01*
X236382Y55000D01*
X233618D01*
X230947Y54284D01*
X228553Y52902D01*
X226598Y50947D01*
X225216Y48553D01*
X224500Y45882D01*
Y43118D01*
X224995Y41270D01*
X224080Y40000D01*
X208030D01*
X204166Y40769D01*
X200526Y42276D01*
X197251Y44465D01*
X194465Y47251D01*
X192276Y50526D01*
X190769Y54166D01*
X190000Y58030D01*
Y60000D01*
Y91268D01*
X191173Y91754D01*
X191705Y91223D01*
X193327Y90139D01*
X195241Y89758D01*
X197155Y90139D01*
X198777Y91223D01*
X199862Y92845D01*
X200242Y94759D01*
X199862Y96673D01*
X198777Y98295D01*
X196636Y100436D01*
X195014Y101520D01*
X193100Y101901D01*
X191186Y101520D01*
X191145Y101493D01*
X189734Y102077D01*
X189569Y102903D01*
X188819Y104714D01*
X187730Y106344D01*
X186344Y107730D01*
X184714Y108819D01*
X182903Y109569D01*
X180980Y109952D01*
X180000Y110000D01*
X49015D01*
X47083Y110384D01*
X45263Y111138D01*
X43625Y112233D01*
X42232Y113625D01*
X41138Y115263D01*
X40767Y116160D01*
X42352Y117746D01*
X43800Y120254D01*
X44550Y123052D01*
Y125948D01*
X43800Y128746D01*
X42352Y131254D01*
X40304Y133302D01*
X40000Y133478D01*
Y310000D01*
Y310985D01*
X40384Y312917D01*
X41138Y314737D01*
X42232Y316375D01*
X43625Y317768D01*
X45263Y318862D01*
X47083Y319616D01*
X49015Y320000D01*
X70000D01*
X70980Y320048D01*
X72903Y320431D01*
X74714Y321181D01*
X76344Y322270D01*
X77730Y323656D01*
X78819Y325286D01*
X79569Y327097D01*
X79952Y329020D01*
X80000Y330000D01*
Y390000D01*
Y391970D01*
X80769Y395834D01*
X82276Y399473D01*
X84465Y402749D01*
X87251Y405535D01*
X90526Y407724D01*
X94166Y409231D01*
X98030Y410000D01*
X98964D01*
X100597Y407171D01*
X102971Y404798D01*
X105879Y403119D01*
X109121Y402250D01*
X112479D01*
X115721Y403119D01*
X118629Y404798D01*
X121003Y407171D01*
X122636Y410000D01*
X457102D01*
X462009Y409024D01*
D02*
G37*
%LPC*%
G36*
X288450Y395000D02*
X268450D01*
Y375000D01*
X288450D01*
Y395000D01*
D02*
G37*
G36*
X279767Y370000D02*
X277134D01*
X274590Y369319D01*
X272310Y368002D01*
X270448Y366140D01*
X269132Y363860D01*
X268450Y361316D01*
Y358684D01*
X269132Y356140D01*
X270448Y353860D01*
X272310Y351998D01*
X274590Y350681D01*
X277134Y350000D01*
X279767D01*
X282310Y350681D01*
X284590Y351998D01*
X286452Y353860D01*
X287768Y356140D01*
X288450Y358684D01*
Y361316D01*
X287768Y363860D01*
X286452Y366140D01*
X284590Y368002D01*
X282310Y369319D01*
X279767Y370000D01*
D02*
G37*
G36*
Y345000D02*
X277134D01*
X274590Y344319D01*
X272310Y343002D01*
X270448Y341140D01*
X269132Y338860D01*
X268450Y336316D01*
Y333684D01*
X269132Y331140D01*
X270448Y328860D01*
X272310Y326998D01*
X274590Y325681D01*
X277134Y325000D01*
X279767D01*
X282310Y325681D01*
X284590Y326998D01*
X286452Y328860D01*
X287768Y331140D01*
X288450Y333684D01*
Y336316D01*
X287768Y338860D01*
X286452Y341140D01*
X284590Y343002D01*
X282310Y344319D01*
X279767Y345000D01*
D02*
G37*
G36*
X96316Y298100D02*
X93684D01*
X91140Y297418D01*
X88860Y296102D01*
X86998Y294240D01*
X85681Y291960D01*
X85000Y289417D01*
Y286783D01*
X85681Y284240D01*
X86998Y281960D01*
X88860Y280098D01*
X91140Y278782D01*
X93684Y278100D01*
X96316D01*
X98860Y278782D01*
X101140Y280098D01*
X103002Y281960D01*
X104319Y284240D01*
X105000Y286783D01*
Y289417D01*
X104319Y291960D01*
X103002Y294240D01*
X101140Y296102D01*
X98860Y297418D01*
X96316Y298100D01*
D02*
G37*
G36*
Y221900D02*
X93684D01*
X91140Y221218D01*
X88860Y219902D01*
X86998Y218040D01*
X85681Y215760D01*
X85000Y213216D01*
Y210583D01*
X85681Y208040D01*
X86998Y205760D01*
X88860Y203898D01*
X91140Y202582D01*
X93684Y201900D01*
X96316D01*
X98860Y202582D01*
X101140Y203898D01*
X103002Y205760D01*
X104319Y208040D01*
X105000Y210583D01*
Y213216D01*
X104319Y215760D01*
X103002Y218040D01*
X101140Y219902D01*
X98860Y221218D01*
X96316Y221900D01*
D02*
G37*
G36*
X56316D02*
X53684D01*
X51140Y221218D01*
X48860Y219902D01*
X46998Y218040D01*
X45682Y215760D01*
X45000Y213216D01*
Y210583D01*
X45682Y208040D01*
X46998Y205760D01*
X48860Y203898D01*
X51140Y202582D01*
X53684Y201900D01*
X56316D01*
X58860Y202582D01*
X61140Y203898D01*
X63002Y205760D01*
X64318Y208040D01*
X65000Y210583D01*
Y213216D01*
X64318Y215760D01*
X63002Y218040D01*
X61140Y219902D01*
X58860Y221218D01*
X56316Y221900D01*
D02*
G37*
%LPD*%
D28*
X193100Y96900D02*
X195241Y94759D01*
D30*
X325000Y127500D02*
D03*
D31*
Y102500D02*
D03*
D32*
X58950Y124500D02*
D03*
X33550D02*
D03*
X420000Y435000D02*
D03*
Y358000D02*
D03*
X425000Y275000D02*
D03*
Y198000D02*
D03*
D33*
X490000Y75000D02*
D03*
X116900Y96900D02*
D03*
D34*
X490000Y95000D02*
D03*
X193100Y173100D02*
D03*
X167700D02*
D03*
X142300D02*
D03*
X116900D02*
D03*
X193100Y96900D02*
D03*
X167700D02*
D03*
X142300D02*
D03*
X130000Y44500D02*
D03*
X235000D02*
D03*
D35*
X425000Y85000D02*
D03*
Y135000D02*
D03*
X260000Y155000D02*
D03*
Y105000D02*
D03*
X365000Y50000D02*
D03*
X315000D02*
D03*
X255000Y230000D02*
D03*
X305000D02*
D03*
D36*
X60000Y415000D02*
D03*
X110800D02*
D03*
Y364200D02*
D03*
D37*
X278450Y385000D02*
D03*
D38*
Y360000D02*
D03*
Y335000D02*
D03*
X15000Y288100D02*
D03*
Y211900D02*
D03*
X95000Y288100D02*
D03*
Y211900D02*
D03*
X55000D02*
D03*
Y288100D02*
D03*
X130000Y211900D02*
D03*
Y288100D02*
D03*
X170000Y211900D02*
D03*
Y288100D02*
D03*
X210000D02*
D03*
Y211900D02*
D03*
D39*
X150000Y44500D02*
D03*
X255000D02*
D03*
M02*
